<?xml version="1.0" encoding="utf-8"?>
<!-- Generator: Adobe Illustrator 21.1.0, SVG Export Plug-In . SVG Version: 6.00 Build 0)  -->
<svg version="1.1" id="Capa_1" xmlns="http://www.w3.org/2000/svg" xmlns:xlink="http://www.w3.org/1999/xlink" x="0px" y="0px"
	 viewBox="0 0 60 60" style="enable-background:new 0 0 60 60;" xml:space="preserve">
<style type="text/css">
	.st0{fill:#E1226A;}
</style>
<g>
	<path class="st0" d="M42.7,29L24.3,16.4c-0.4-0.3-0.9-0.3-1.2-0.1c-0.4,0.2-0.6,0.6-0.6,1.1v25.1c0,0.5,0.2,0.9,0.6,1.1
		c0.2,0.1,0.4,0.1,0.6,0.1c0.2,0,0.5-0.1,0.7-0.2L42.7,31c0.3-0.2,0.5-0.6,0.5-1S43,29.2,42.7,29z M39.8,30L24.8,40.3V19.7L39.8,30z
		"/>
	<path class="st0" d="M30,0.4C13.7,0.4,0.4,13.7,0.4,30c0,16.3,13.3,29.6,29.6,29.6S59.6,46.3,59.6,30C59.6,13.7,46.3,0.4,30,0.4z
		 M30,56.9c-14.8,0-26.9-12-26.9-26.9c0-14.8,12-26.9,26.9-26.9s26.9,12,26.9,26.9C56.9,44.8,44.8,56.9,30,56.9z"/>
</g>
</svg>
