<?xml version="1.0" encoding="utf-8"?>
<!-- Generator: Adobe Illustrator 21.1.0, SVG Export Plug-In . SVG Version: 6.00 Build 0)  -->
<svg version="1.1" xmlns="http://www.w3.org/2000/svg" xmlns:xlink="http://www.w3.org/1999/xlink" x="0px" y="0px"
	 viewBox="0 0 800 800" style="enable-background:new 0 0 800 800;" xml:space="preserve">
<style type="text/css">
	.st0{display:none;}
	.st1{display:inline;fill:#FFFFFF;}
	.st2{font-family:'FranchiseFree-Bold';}
	.st3{font-size:100px;}
	.st4{font-size:55px;}
	.st5{display:inline;opacity:0.57;fill:none;stroke:#FFFFFF;stroke-width:6;stroke-miterlimit:10;}
	.st6{font-family:'SourceSansPro-Regular';}
	.st7{font-size:22px;}
	.st8{fill:#FFFFFF;}
	.st9{opacity:0.57;fill:none;stroke:#FFFFFF;stroke-width:6;stroke-miterlimit:10;}
</style>
<g id="Calque_1" class="st0">
</g>
<g id="Calque_2" class="st0">
	<text transform="matrix(1 0 0 1 292.5283 197.6536)" class="st1 st2 st3">409 km</text>
	<text transform="matrix(1 0 0 1 507.472 150.9998)" class="st1 st2 st4">2</text>
	<line class="st5" x1="400" y1="218" x2="400" y2="609"/>
	<text transform="matrix(1 0 0 1 292.5283 116)" class="st1 st6 st7">surface de la zone </text>
</g>
<g id="Calque_3" class="st0">
	<text transform="matrix(1 0 0 1 262.5283 257.6536)" class="st1 st2 st3">16 111 000</text>
	<line class="st5" x1="410" y1="270" x2="410" y2="755"/>
	<text transform="matrix(1 0 0 1 262.5283 168)" class="st1 st6 st7">population totale</text>
</g>
<g id="Calque_4" class="st0">
	<text transform="matrix(1 0 0 1 266.5283 344.6536)" class="st1 st2 st3">63 254 000</text>
	<line class="st5" x1="414" y1="362" x2="414" y2="748"/>
	<text transform="matrix(1 0 0 1 426.5283 255)" class="st1 st6 st7">population totale</text>
</g>
<g id="Calque_5">
	<g>
		<path class="st8" d="M318.5,477.7c-3.9,6.3-5.3,11.7-5.3,11.7h15.5c0.5,0,0.9,0.4,0.9,0.9v9.5c0,0.5-0.4,0.9-0.9,0.9h-26.4
			c-0.5,0-0.8-0.4-0.9-0.9c-0.8-5,0.1-10.5,0.1-10.5c0.5-5.1,3-9.6,3-9.6c6.8-12.5,12.9-19.7,12.9-19.7c0.6-1.4,0.3-2.4,0.4-5.1V443
			c0-1.3-1.1-2.4-2.4-2.4h-0.8c-1.3,0-2.4,1.1-2.4,2.4v6.6c0,0.8-0.6,1.6-1.3,1.8l-9.1,2.4c-0.7,0.2-1.3-0.2-1.3-1v-10.3
			c0-6.9,5.7-12.6,12.6-12.6h3.8c6.9,0,12.6,5.7,12.6,12.6v6v5.9c0,4.1-1,8.1-3.2,11.5c-2,3.2-4.5,6.6-6.6,9.8
			C319.3,476.4,318.9,477.1,318.5,477.7z"/>
		<path class="st8" d="M366.6,466v22.8c0,6.9-5.7,12.6-12.6,12.6h-3.8c-6.9,0-12.6-5.7-12.6-12.6v-4.1c0-0.8,0.6-1.6,1.3-1.8
			l9.1-2.4c0.7-0.2,1.3,0.2,1.3,1v6.8c0,1.3,1.1,2.4,2.4,2.4h0.8c1.3,0,2.4-1.1,2.4-2.4v-19.7c0-1.1-0.3-1.9-0.6-2.2
			c-0.3-0.3-0.9-0.8-1.8-0.8h-0.8c-0.9,0-1.5,0.6-1.8,0.9c-0.3,0.3-0.6,1-0.6,2.1v2.8c0,0.6-0.5,1.1-1.1,0.9l-9.5-2.5
			c-0.6-0.2-1.1-0.8-1.1-1.4V432c0-0.8,0.6-1.4,1.4-1.4h5.9H363c0.8,0,1.4,0.6,1.4,1.4v8.5c0,0.8-0.6,1.4-1.4,1.4h-13.7v15.1
			c1.9-0.9,4.3-1.4,6.5-1.4c1.4,0,2.7,0.2,3.8,0.5C364.2,457.5,366.7,461.2,366.6,466z"/>
		<path class="st8" d="M404.3,501.4h-3.8c-6.9,0-12.6-5.7-12.6-12.6v-46.2c0-6.9,5.7-12.6,12.6-12.6h3.8c6.9,0,12.6,5.7,12.6,12.6
			v46.2C416.9,495.7,411.2,501.4,404.3,501.4z M402.8,440.6H402c-1.3,0-2.4,1.1-2.4,2.4v45.2c0,1.3,1.1,2.4,2.4,2.4h0.8
			c1.3,0,2.4-1.1,2.4-2.4V443C405.2,441.8,404.1,440.6,402.8,440.6z"/>
		<path class="st8" d="M441.3,501.4h-3.8c-6.9,0-12.6-5.7-12.6-12.6v-46.2c0-6.9,5.7-12.6,12.6-12.6h3.8c6.9,0,12.6,5.7,12.6,12.6
			v46.2C453.9,495.7,448.2,501.4,441.3,501.4z M439.8,440.6H439c-1.3,0-2.4,1.1-2.4,2.4v45.2c0,1.3,1.1,2.4,2.4,2.4h0.8
			c1.3,0,2.4-1.1,2.4-2.4V443C442.2,441.8,441.1,440.6,439.8,440.6z"/>
		<path class="st8" d="M478.3,501.4h-3.8c-6.9,0-12.6-5.7-12.6-12.6v-46.2c0-6.9,5.7-12.6,12.6-12.6h3.8c6.9,0,12.6,5.7,12.6,12.6
			v46.2C490.9,495.7,485.2,501.4,478.3,501.4z M476.8,440.6H476c-1.3,0-2.4,1.1-2.4,2.4v45.2c0,1.3,1.1,2.4,2.4,2.4h0.8
			c1.3,0,2.4-1.1,2.4-2.4V443C479.2,441.8,478.1,440.6,476.8,440.6z"/>
	</g>
	<line class="st9" x1="395" y1="521" x2="395" y2="744"/>
	<g>
		<path class="st8" d="M295.3,395.3h1.8v4.3l0,1.9c1-0.9,2.2-1.5,3.3-1.5c2.8,0,4.2,2.1,4.2,5.4c0,3.7-2.2,5.8-4.6,5.8
			c-1,0-2.1-0.5-3.1-1.3h-0.1l-0.2,1.1h-1.5V395.3z M299.8,409.7c1.8,0,3.1-1.6,3.1-4.2c0-2.4-0.8-3.9-2.8-3.9
			c-0.9,0-1.8,0.5-2.9,1.5v5.6C298.1,409.4,299.1,409.7,299.8,409.7z"/>
		<path class="st8" d="M313.3,404.2c0-1.4-0.5-2.7-2.2-2.7c-1.3,0-2.4,0.6-3.2,1.1l-0.7-1.3c1-0.6,2.5-1.4,4.2-1.4
			c2.6,0,3.7,1.7,3.7,4.4v6.6h-1.5l-0.2-1.3h0c-1,0.8-2.2,1.5-3.5,1.5c-1.8,0-3.1-1.1-3.1-3C306.7,405.9,308.7,404.7,313.3,404.2z
			 M310.4,409.8c1,0,1.9-0.5,2.9-1.4v-3c-3.6,0.4-4.8,1.3-4.8,2.7C308.5,409.3,309.3,409.8,310.4,409.8z M310.6,395.3h1.5l2.1,3.1
			h-1.3l-1.5-2h-0.1l-1.5,2h-1.3L310.6,395.3z"/>
		<path class="st8" d="M318.8,401.8h-1.6v-1.4l1.7-0.1l0.2-3h1.5v3h2.9v1.5h-2.9v5.9c0,1.3,0.4,2.1,1.7,2.1c0.4,0,0.9-0.2,1.2-0.3
			l0.4,1.4c-0.6,0.2-1.3,0.4-2,0.4c-2.3,0-3.1-1.5-3.1-3.6V401.8z"/>
		<path class="st8" d="M325.6,396.9c0-0.7,0.6-1.2,1.3-1.2s1.3,0.5,1.3,1.2c0,0.7-0.5,1.2-1.3,1.2S325.6,397.6,325.6,396.9z
			 M325.9,400.3h1.8V411h-1.8V400.3z"/>
		<path class="st8" d="M331.3,400.3h1.5l0.2,1.5h0.1c0.9-1,2-1.8,3.3-1.8c1.6,0,2.5,0.8,2.9,2c1.1-1.2,2.2-2,3.5-2
			c2.2,0,3.3,1.5,3.3,4.2v6.8h-1.8v-6.5c0-2-0.6-2.9-2-2.9c-0.8,0-1.7,0.5-2.7,1.7v7.7h-1.8v-6.5c0-2-0.6-2.9-2-2.9
			c-0.8,0-1.7,0.5-2.7,1.7v7.7h-1.8V400.3z"/>
		<path class="st8" d="M353.6,400c2.7,0,4.3,2,4.3,5c0,0.4,0,0.7-0.1,1h-7.2c0.1,2.3,1.5,3.8,3.6,3.8c1,0,1.9-0.3,2.7-0.8l0.6,1.2
			c-0.9,0.6-2.1,1.1-3.5,1.1c-2.9,0-5.1-2.1-5.1-5.6C348.8,402.2,351.1,400,353.6,400z M356.3,404.9c0-2.2-1-3.4-2.6-3.4
			c-1.5,0-2.9,1.2-3.1,3.4H356.3z"/>
		<path class="st8" d="M360.5,400.3h1.5l0.2,1.5h0.1c1-1,2.1-1.8,3.6-1.8c2.2,0,3.3,1.5,3.3,4.2v6.8h-1.8v-6.5c0-2-0.6-2.9-2-2.9
			c-1.1,0-1.8,0.6-2.9,1.7v7.7h-1.8V400.3z"/>
		<path class="st8" d="M372.8,401.8h-1.6v-1.4l1.7-0.1l0.2-3h1.5v3h2.9v1.5h-2.9v5.9c0,1.3,0.4,2.1,1.7,2.1c0.4,0,0.9-0.2,1.2-0.3
			l0.4,1.4c-0.6,0.2-1.3,0.4-2,0.4c-2.3,0-3.1-1.5-3.1-3.6V401.8z"/>
		<path class="st8" d="M379.7,408.6c0.9,0.7,1.9,1.3,3.1,1.3c1.4,0,2.1-0.7,2.1-1.7c0-1.1-1.3-1.6-2.4-2c-1.5-0.5-3.2-1.3-3.2-3.1
			c0-1.7,1.4-3,3.7-3c1.3,0,2.5,0.5,3.3,1.2l-0.9,1.1c-0.7-0.5-1.5-0.9-2.4-0.9c-1.3,0-2,0.7-2,1.5c0,1,1.2,1.4,2.4,1.8
			c1.5,0.6,3.3,1.2,3.3,3.2c0,1.7-1.4,3.2-3.9,3.2c-1.5,0-3-0.6-4-1.5L379.7,408.6z"/>
		<path class="st8" d="M397.5,400c1.2,0,2,0.5,3,1.2l-0.1-1.8v-4.1h1.8V411h-1.5l-0.2-1.3h-0.1c-0.8,0.8-2,1.5-3.2,1.5
			c-2.7,0-4.4-2-4.4-5.6C392.9,402.2,395.1,400,397.5,400z M397.7,409.7c1,0,1.8-0.5,2.7-1.5v-5.6c-0.9-0.8-1.7-1.1-2.6-1.1
			c-1.7,0-3.1,1.7-3.1,4.1C394.7,408.2,395.8,409.7,397.7,409.7z"/>
		<path class="st8" d="M409.8,400c2.7,0,4.3,2,4.3,5c0,0.4,0,0.7-0.1,1h-7.2c0.1,2.3,1.5,3.8,3.6,3.8c1,0,1.9-0.3,2.7-0.8l0.6,1.2
			c-0.9,0.6-2.1,1.1-3.5,1.1c-2.9,0-5.1-2.1-5.1-5.6C405,402.2,407.4,400,409.8,400z M412.5,404.9c0-2.2-1-3.4-2.6-3.4
			c-1.5,0-2.9,1.2-3.1,3.4H412.5z M409.8,398.4h-1.4l2-3.1h1.9L409.8,398.4z"/>
		<path class="st8" d="M416.5,408.6c0.9,0.7,1.9,1.3,3.1,1.3c1.4,0,2.1-0.7,2.1-1.7c0-1.1-1.3-1.6-2.4-2c-1.5-0.5-3.2-1.3-3.2-3.1
			c0-1.7,1.4-3,3.7-3c1.3,0,2.5,0.5,3.3,1.2l-0.9,1.1c-0.7-0.5-1.5-0.9-2.4-0.9c-1.3,0-2,0.7-2,1.5c0,1,1.2,1.4,2.4,1.8
			c1.5,0.6,3.3,1.2,3.3,3.2c0,1.7-1.4,3.2-3.9,3.2c-1.5,0-3-0.6-4-1.5L416.5,408.6z"/>
		<path class="st8" d="M432,404.2c0-1.4-0.5-2.7-2.2-2.7c-1.3,0-2.4,0.6-3.2,1.1l-0.7-1.3c1-0.6,2.5-1.4,4.2-1.4
			c2.6,0,3.7,1.7,3.7,4.4v6.6h-1.5l-0.2-1.3h0c-1,0.8-2.2,1.5-3.5,1.5c-1.8,0-3.1-1.1-3.1-3C425.4,405.9,427.5,404.7,432,404.2z
			 M429.1,409.8c1,0,1.9-0.5,2.9-1.4v-3c-3.6,0.4-4.8,1.3-4.8,2.7C427.2,409.3,428,409.8,429.1,409.8z"/>
		<path class="st8" d="M442,396.8c-0.4-0.2-0.8-0.3-1.2-0.3c-1,0-1.5,0.7-1.5,2.1v1.7h2.3v1.5h-2.3v9.2h-1.8v-9.2h-1.5v-1.4l1.5-0.1
			v-1.7c0-2.2,1-3.5,3.1-3.5c0.7,0,1.3,0.2,1.8,0.4L442,396.8z"/>
		<path class="st8" d="M447.4,400c2.7,0,4.3,2,4.3,5c0,0.4,0,0.7-0.1,1h-7.2c0.1,2.3,1.5,3.8,3.6,3.8c1,0,1.9-0.3,2.7-0.8l0.6,1.2
			c-0.9,0.6-2.1,1.1-3.5,1.1c-2.9,0-5.1-2.1-5.1-5.6C442.6,402.2,445,400,447.4,400z M450.1,404.9c0-2.2-1-3.4-2.6-3.4
			c-1.5,0-2.9,1.2-3.1,3.4H450.1z"/>
		<path class="st8" d="M458.7,400c1.4,0,2.4,0.6,3.1,1.3l-0.9,1.2c-0.6-0.5-1.3-0.9-2.2-0.9c-1.9,0-3.3,1.7-3.3,4.1
			c0,2.4,1.3,4.1,3.3,4.1c1,0,1.9-0.5,2.5-1.1l0.8,1.2c-1,0.9-2.2,1.4-3.5,1.4c-2.8,0-5-2-5-5.6C453.6,402.1,456,400,458.7,400z"/>
		<path class="st8" d="M464.7,401.8h-1.6v-1.4l1.7-0.1l0.2-3h1.5v3h2.9v1.5h-2.9v5.9c0,1.3,0.4,2.1,1.7,2.1c0.4,0,0.9-0.2,1.2-0.3
			l0.4,1.4c-0.6,0.2-1.3,0.4-2,0.4c-2.3,0-3.1-1.5-3.1-3.6V401.8z"/>
		<path class="st8" d="M475.6,400c2.7,0,4.3,2,4.3,5c0,0.4,0,0.7-0.1,1h-7.2c0.1,2.3,1.5,3.8,3.6,3.8c1,0,1.9-0.3,2.7-0.8l0.6,1.2
			c-0.9,0.6-2.1,1.1-3.5,1.1c-2.9,0-5.1-2.1-5.1-5.6C470.8,402.2,473.2,400,475.6,400z M478.3,404.9c0-2.2-1-3.4-2.6-3.4
			c-1.5,0-2.9,1.2-3.1,3.4H478.3z M475.6,398.4h-1.4l2-3.1h1.9L475.6,398.4z"/>
		<path class="st8" d="M482.2,408.6c0.9,0.7,1.9,1.3,3.1,1.3c1.4,0,2.1-0.7,2.1-1.7c0-1.1-1.3-1.6-2.4-2c-1.5-0.5-3.2-1.3-3.2-3.1
			c0-1.7,1.4-3,3.7-3c1.3,0,2.5,0.5,3.3,1.2l-0.9,1.1c-0.7-0.5-1.5-0.9-2.4-0.9c-1.3,0-2,0.7-2,1.5c0,1,1.2,1.4,2.4,1.8
			c1.5,0.6,3.3,1.2,3.3,3.2c0,1.7-1.4,3.2-3.9,3.2c-1.5,0-3-0.6-4-1.5L482.2,408.6z"/>
	</g>
</g>
</svg>
