<?xml version="1.0" encoding="utf-8"?>
<!-- Generator: Adobe Illustrator 21.1.0, SVG Export Plug-In . SVG Version: 6.00 Build 0)  -->
<svg version="1.1" xmlns="http://www.w3.org/2000/svg" xmlns:xlink="http://www.w3.org/1999/xlink" x="0px" y="0px"
	 viewBox="0 0 800 800" style="enable-background:new 0 0 800 800;" xml:space="preserve">
<style type="text/css">
	.st0{display:none;}
	.st1{display:inline;}
	.st2{fill:#FFFFFF;}
	.st3{display:inline;opacity:0.57;fill:none;stroke:#FFFFFF;stroke-width:6;stroke-miterlimit:10;}
	.st4{opacity:0.57;fill:none;stroke:#FFFFFF;stroke-width:6;stroke-miterlimit:10;}
	.st5{fill:#FCFAFC;}
</style>
<g id="Calque_1" class="st0">
</g>
<g id="Calque_2" class="st0">
	<g class="st1">
		<path class="st2" d="M327.5,174v8.3c0,0.4-0.2,0.8-0.4,1c-0.3,0.2-0.6,0.4-0.9,0.4H323v12.6c0,0.8-0.6,1.4-1.4,1.4h-8.9
			c-0.8,0-1.4-0.6-1.4-1.4v-12.6h-15.5c-0.4,0-0.7-0.2-0.9-0.4c-0.3-0.2-0.4-0.6-0.4-1v-8.5c0-0.5,0.2-1,0.2-1
			c10.4-20.4,13-38.9,13.5-43.8c0,0,0.1-1.3,1.4-1.3h12c0.8,0,1.4,0.6,1.4,1.4v43.6h3.2c0.3,0,0.6,0.2,0.9,0.4
			C327.3,173.3,327.5,173.7,327.5,174z M311.2,149.7c0,0-1.8,10.4-7.3,23h7.3V149.7z"/>
		<path class="st2" d="M351.9,198.4h-3.8c-6.9,0-12.6-5.7-12.6-12.6v-46.2c0-6.9,5.7-12.6,12.6-12.6h3.8c6.9,0,12.6,5.7,12.6,12.6
			v46.2C364.5,192.7,358.8,198.4,351.9,198.4z M350.4,137.6h-0.8c-1.3,0-2.4,1.1-2.4,2.4v45.2c0,1.3,1.1,2.4,2.4,2.4h0.8
			c1.3,0,2.4-1.1,2.4-2.4v-45.2C352.8,138.8,351.7,137.6,350.4,137.6z"/>
		<path class="st2" d="M401.5,139.6v46.2c0,6.9-5.7,12.6-12.6,12.6h-3.8c-6.9,0-12.6-5.7-12.6-12.6v-4.1c0-0.8,0.6-1.6,1.3-1.8
			l9.1-2.4c0.7-0.2,1.3,0.2,1.3,1v6.8c0,1.3,1.1,2.4,2.4,2.4h0.8c1.3,0,2.4-1.1,2.4-2.4v-14.7c-2,0.9-4.3,1.4-6.5,1.4
			c-1.4,0-2.7-0.2-3.8-0.5c-4.7-1.3-7-4.7-7-9.8v-22.1c0-6.9,5.7-12.6,12.6-12.6h3.8C395.8,126.9,401.5,132.6,401.5,139.6z
			 M389.8,140.1c0-1.3-1.1-2.4-2.4-2.4h-0.8c-1.3,0-2.4,1.1-2.4,2.4v19c0,1.1,0.3,1.9,0.6,2.2c0.3,0.3,0.9,0.8,1.8,0.8h0.8
			c0.9,0,1.5-0.6,1.8-0.9c0.3-0.3,0.6-1,0.6-2.1V140.1z"/>
		<path class="st2" d="M456.8,139.1l-13.6,25.5l13.4,31.7c0.2,0.7-0.2,1.4-1,1.4h-9.9c-0.8,0-1.6-0.5-1.8-1.2l-7.3-16.6l-1.7,3.2
			v13.2c0,0.8-0.6,1.4-1.4,1.4h-8.9c-0.8,0-1.4-0.6-1.4-1.4v-57.2c0-0.8,0.6-1.4,1.4-1.4h8.9c0.8,0,1.4,0.6,1.4,1.4v17.5l9.2-17.7
			c0.3-0.7,1.1-1.2,1.9-1.2h10C456.8,137.6,457.1,138.4,456.8,139.1z"/>
		<path class="st2" d="M502.5,139.1v57.2c0,0.8-0.6,1.4-1.4,1.4h-9.6c-0.8,0-1.4-0.6-1.4-1.4v-26.6l-6.6,23.8c-0.2,0.7-0.8,0.7-1,0
			l-6.6-23.8v26.6c0,0.8-0.6,1.4-1.4,1.4h-9.6c-0.8,0-1.4-0.6-1.4-1.4v-57.2c0-0.8,0.6-1.4,1.4-1.4h8.5c0.8,0,1.5,0.7,1.7,1.4
			l7.9,30.8l7.9-30.8c0.2-0.7,0.9-1.4,1.7-1.4h8.5C501.9,137.6,502.5,138.3,502.5,139.1z"/>
	</g>
	<g class="st1">
		<path class="st2" d="M519.6,138.4c-2.1,3.5-2.9,6.4-2.9,6.4h8.5c0.3,0,0.5,0.2,0.5,0.5v5.2c0,0.3-0.2,0.5-0.5,0.5h-14.5
			c-0.3,0-0.4-0.2-0.5-0.5c-0.4-2.7,0.1-5.8,0.1-5.8c0.3-2.8,1.6-5.3,1.6-5.3c3.7-6.9,7.1-10.8,7.1-10.8c0.3-0.8,0.2-1.3,0.2-2.8
			v-6.5c0-0.7-0.6-1.3-1.3-1.3h-0.4c-0.7,0-1.3,0.6-1.3,1.3v3.6c0,0.4-0.3,0.9-0.7,1l-5,1.3c-0.4,0.1-0.7-0.1-0.7-0.5V119
			c0-3.8,3.1-6.9,6.9-6.9h2.1c3.8,0,6.9,3.1,6.9,6.9v3.3v3.2c0,2.3-0.5,4.5-1.8,6.3c-1.1,1.8-2.5,3.6-3.6,5.4
			C520,137.6,519.8,138,519.6,138.4z"/>
	</g>
	<line class="st3" x1="400" y1="218" x2="400" y2="609"/>
	<g class="st1">
		<path class="st2" d="M294,113.6c0.9,0.7,1.9,1.3,3.1,1.3c1.4,0,2.1-0.7,2.1-1.7c0-1.1-1.3-1.6-2.4-2c-1.5-0.5-3.2-1.3-3.2-3.1
			c0-1.7,1.4-3,3.7-3c1.3,0,2.5,0.5,3.3,1.2l-0.9,1.1c-0.7-0.6-1.5-0.9-2.4-0.9c-1.3,0-2,0.7-2,1.5c0,1,1.2,1.4,2.4,1.8
			c1.5,0.6,3.3,1.2,3.3,3.2c0,1.7-1.4,3.2-3.9,3.2c-1.5,0-3-0.6-4-1.5L294,113.6z"/>
		<path class="st2" d="M303.4,105.3h1.8v6.5c0,2,0.6,2.9,2,2.9c1.1,0,1.9-0.5,2.9-1.8v-7.6h1.8V116h-1.5l-0.2-1.7h-0.1
			c-1,1.2-2,1.9-3.5,1.9c-2.3,0-3.3-1.5-3.3-4.2V105.3z"/>
		<path class="st2" d="M315.5,105.3h1.5l0.2,1.9h0.1c0.7-1.3,1.8-2.2,3-2.2c0.5,0,0.8,0.1,1.1,0.2l-0.4,1.6c-0.4-0.1-0.6-0.2-1-0.2
			c-0.9,0-2,0.7-2.7,2.5v6.9h-1.8V105.3z"/>
		<path class="st2" d="M328,101.8c-0.4-0.2-0.8-0.3-1.2-0.3c-1,0-1.5,0.7-1.5,2.1v1.7h2.3v1.5h-2.3v9.2h-1.8v-9.2H322v-1.4l1.5-0.1
			v-1.7c0-2.2,1-3.5,3.1-3.5c0.7,0,1.3,0.2,1.8,0.4L328,101.8z"/>
		<path class="st2" d="M335.2,109.2c0-1.4-0.5-2.7-2.2-2.7c-1.3,0-2.4,0.6-3.2,1.1l-0.7-1.3c1-0.6,2.5-1.4,4.2-1.4
			c2.6,0,3.7,1.7,3.7,4.4v6.6h-1.5l-0.2-1.3h0c-1,0.8-2.2,1.5-3.5,1.5c-1.8,0-3.1-1.1-3.1-3C328.6,110.9,330.6,109.7,335.2,109.2z
			 M332.3,114.8c1,0,1.9-0.5,2.9-1.4v-3c-3.6,0.4-4.8,1.3-4.8,2.7C330.4,114.3,331.2,114.8,332.3,114.8z"/>
		<path class="st2" d="M344.8,105c1.4,0,2.4,0.6,3.1,1.3l-0.9,1.2c-0.6-0.6-1.3-0.9-2.2-0.9c-1.9,0-3.3,1.7-3.3,4.1
			c0,2.4,1.3,4.1,3.3,4.1c1,0,1.9-0.5,2.5-1.1l0.8,1.2c-1,0.9-2.2,1.4-3.5,1.4c-2.8,0-5-2-5-5.6C339.6,107.1,342,105,344.8,105z"/>
		<path class="st2" d="M354,105c2.7,0,4.3,2,4.3,5c0,0.4,0,0.7-0.1,1H351c0.1,2.3,1.5,3.8,3.6,3.8c1,0,1.9-0.3,2.7-0.8l0.6,1.2
			c-0.9,0.6-2.1,1.1-3.5,1.1c-2.9,0-5.1-2.1-5.1-5.6S351.5,105,354,105z M356.7,109.9c0-2.2-1-3.4-2.6-3.4c-1.5,0-2.9,1.2-3.1,3.4
			H356.7z"/>
		<path class="st2" d="M369.2,105c1.2,0,2,0.5,3,1.2l-0.1-1.8v-4.1h1.8V116h-1.5l-0.2-1.3h-0.1c-0.8,0.8-2,1.5-3.2,1.5
			c-2.7,0-4.4-2-4.4-5.6C364.6,107.2,366.8,105,369.2,105z M369.4,114.7c1,0,1.8-0.5,2.7-1.5v-5.6c-0.9-0.8-1.7-1.1-2.6-1.1
			c-1.7,0-3.1,1.7-3.1,4.1C366.4,113.2,367.5,114.7,369.4,114.7z"/>
		<path class="st2" d="M381.5,105c2.7,0,4.3,2,4.3,5c0,0.4,0,0.7-0.1,1h-7.2c0.1,2.3,1.5,3.8,3.6,3.8c1,0,1.9-0.3,2.7-0.8l0.6,1.2
			c-0.9,0.6-2.1,1.1-3.5,1.1c-2.9,0-5.1-2.1-5.1-5.6S379.1,105,381.5,105z M384.2,109.9c0-2.2-1-3.4-2.6-3.4c-1.5,0-2.9,1.2-3.1,3.4
			H384.2z"/>
		<path class="st2" d="M392.9,100.3h1.8V114c0,0.6,0.2,0.8,0.5,0.8c0.1,0,0.2,0,0.4,0l0.2,1.4c-0.2,0.1-0.6,0.2-1,0.2
			c-1.4,0-1.9-0.9-1.9-2.4V100.3z"/>
		<path class="st2" d="M404.6,109.2c0-1.4-0.5-2.7-2.2-2.7c-1.3,0-2.4,0.6-3.2,1.1l-0.7-1.3c1-0.6,2.5-1.4,4.2-1.4
			c2.6,0,3.7,1.7,3.7,4.4v6.6h-1.5l-0.2-1.3h0c-1,0.8-2.2,1.5-3.5,1.5c-1.8,0-3.1-1.1-3.1-3C398,110.9,400,109.7,404.6,109.2z
			 M401.6,114.8c1,0,1.9-0.5,2.9-1.4v-3c-3.6,0.4-4.8,1.3-4.8,2.7C399.8,114.3,400.6,114.8,401.6,114.8z"/>
		<path class="st2" d="M413.1,115l5.6-8.3h-5v-1.5h7.3v1l-5.6,8.3h5.8v1.5h-8.1V115z"/>
		<path class="st2" d="M427.5,105c2.6,0,5,2,5,5.6c0,3.5-2.3,5.6-5,5.6s-5-2-5-5.6C422.5,107.1,424.9,105,427.5,105z M427.5,114.8
			c1.8,0,3.1-1.6,3.1-4.1c0-2.5-1.2-4.1-3.1-4.1c-1.8,0-3.1,1.7-3.1,4.1C424.4,113.1,425.7,114.8,427.5,114.8z"/>
		<path class="st2" d="M435.3,105.3h1.5l0.2,1.5h0.1c1-1,2.1-1.8,3.6-1.8c2.2,0,3.3,1.5,3.3,4.2v6.8H442v-6.5c0-2-0.6-2.9-2-2.9
			c-1.1,0-1.8,0.6-2.9,1.7v7.7h-1.8V105.3z"/>
		<path class="st2" d="M451.3,105c2.7,0,4.3,2,4.3,5c0,0.4,0,0.7-0.1,1h-7.2c0.1,2.3,1.5,3.8,3.6,3.8c1,0,1.9-0.3,2.7-0.8l0.6,1.2
			c-0.9,0.6-2.1,1.1-3.5,1.1c-2.9,0-5.1-2.1-5.1-5.6S448.9,105,451.3,105z M454,109.9c0-2.2-1-3.4-2.6-3.4c-1.5,0-2.9,1.2-3.1,3.4
			H454z"/>
	</g>
</g>
<g id="Calque_3">
	<line class="st4" x1="410" y1="270" x2="410" y2="755"/>
	<g>
		<path class="st2" d="M269.1,168.9v3.6h-1.8v-15.2h1.5l0.2,1.2h0.1c1-0.8,2.2-1.5,3.4-1.5c2.8,0,4.2,2.1,4.2,5.5
			c0,3.6-2.2,5.8-4.6,5.8c-1,0-2-0.5-3-1.2L269.1,168.9z M271.8,166.7c1.8,0,3.1-1.6,3.1-4.2c0-2.4-0.8-3.9-2.8-3.9
			c-0.9,0-1.8,0.5-2.9,1.5v5.6C270.1,166.4,271.1,166.7,271.8,166.7z"/>
		<path class="st2" d="M283.7,157c2.6,0,5,2,5,5.6c0,3.5-2.3,5.6-5,5.6s-5-2-5-5.6C278.8,159.1,281.1,157,283.7,157z M283.7,166.8
			c1.8,0,3.1-1.6,3.1-4.1c0-2.5-1.2-4.1-3.1-4.1c-1.8,0-3.1,1.7-3.1,4.1C280.6,165.1,281.9,166.8,283.7,166.8z"/>
		<path class="st2" d="M293.3,168.9v3.6h-1.8v-15.2h1.5l0.2,1.2h0.1c1-0.8,2.2-1.5,3.4-1.5c2.8,0,4.2,2.1,4.2,5.5
			c0,3.6-2.2,5.8-4.6,5.8c-1,0-2-0.5-3-1.2L293.3,168.9z M295.9,166.7c1.8,0,3.1-1.6,3.1-4.2c0-2.4-0.8-3.9-2.8-3.9
			c-0.9,0-1.8,0.5-2.9,1.5v5.6C294.2,166.4,295.2,166.7,295.9,166.7z"/>
		<path class="st2" d="M303.5,157.3h1.8v6.5c0,2,0.6,2.9,2,2.9c1.1,0,1.9-0.5,2.9-1.8v-7.6h1.8V168h-1.5l-0.2-1.7h-0.1
			c-1,1.2-2,1.9-3.5,1.9c-2.3,0-3.3-1.5-3.3-4.2V157.3z"/>
		<path class="st2" d="M315.6,152.3h1.8V166c0,0.6,0.2,0.8,0.5,0.8c0.1,0,0.2,0,0.4,0l0.2,1.4c-0.2,0.1-0.6,0.2-1,0.2
			c-1.4,0-1.9-0.9-1.9-2.4V152.3z"/>
		<path class="st2" d="M327.3,161.2c0-1.4-0.5-2.7-2.2-2.7c-1.3,0-2.4,0.6-3.2,1.1l-0.7-1.3c1-0.6,2.5-1.4,4.2-1.4
			c2.6,0,3.7,1.7,3.7,4.4v6.6h-1.5l-0.2-1.3h0c-1,0.8-2.2,1.5-3.5,1.5c-1.8,0-3.1-1.1-3.1-3C320.7,162.9,322.7,161.7,327.3,161.2z
			 M324.4,166.8c1,0,1.9-0.5,2.9-1.4v-3c-3.6,0.4-4.8,1.3-4.8,2.7C322.5,166.3,323.3,166.8,324.4,166.8z"/>
		<path class="st2" d="M332.8,158.8h-1.6v-1.4l1.7-0.1l0.2-3h1.5v3h2.9v1.5h-2.9v5.9c0,1.3,0.4,2.1,1.6,2.1c0.4,0,0.9-0.2,1.2-0.3
			l0.4,1.4c-0.6,0.2-1.3,0.4-2,0.4c-2.3,0-3.1-1.5-3.1-3.6V158.8z"/>
		<path class="st2" d="M339.6,153.9c0-0.7,0.5-1.2,1.3-1.2s1.3,0.5,1.3,1.2c0,0.7-0.5,1.2-1.3,1.2S339.6,154.6,339.6,153.9z
			 M340,157.3h1.8V168H340V157.3z"/>
		<path class="st2" d="M349.5,157c2.6,0,5,2,5,5.6c0,3.5-2.3,5.6-5,5.6s-5-2-5-5.6C344.6,159.1,346.9,157,349.5,157z M349.5,166.8
			c1.8,0,3.1-1.6,3.1-4.1c0-2.5-1.2-4.1-3.1-4.1c-1.8,0-3.1,1.7-3.1,4.1C346.4,165.1,347.7,166.8,349.5,166.8z"/>
		<path class="st2" d="M357.3,157.3h1.5l0.2,1.5h0.1c1-1,2.1-1.8,3.6-1.8c2.2,0,3.3,1.5,3.3,4.2v6.8H364v-6.5c0-2-0.6-2.9-2-2.9
			c-1.1,0-1.8,0.6-2.9,1.7v7.7h-1.8V157.3z"/>
		<path class="st2" d="M374.1,158.8h-1.6v-1.4l1.7-0.1l0.2-3h1.5v3h2.9v1.5h-2.9v5.9c0,1.3,0.4,2.1,1.7,2.1c0.4,0,0.9-0.2,1.2-0.3
			l0.4,1.4c-0.6,0.2-1.3,0.4-2,0.4c-2.3,0-3.1-1.5-3.1-3.6V158.8z"/>
		<path class="st2" d="M385.1,157c2.6,0,5,2,5,5.6c0,3.5-2.3,5.6-5,5.6s-5-2-5-5.6C380.2,159.1,382.5,157,385.1,157z M385.1,166.8
			c1.8,0,3.1-1.6,3.1-4.1c0-2.5-1.2-4.1-3.1-4.1c-1.8,0-3.1,1.7-3.1,4.1C382.1,165.1,383.3,166.8,385.1,166.8z"/>
		<path class="st2" d="M393.2,158.8h-1.6v-1.4l1.7-0.1l0.2-3h1.5v3h2.9v1.5H395v5.9c0,1.3,0.4,2.1,1.7,2.1c0.4,0,0.9-0.2,1.2-0.3
			l0.4,1.4c-0.6,0.2-1.3,0.4-2,0.4c-2.3,0-3.1-1.5-3.1-3.6V158.8z"/>
		<path class="st2" d="M406,161.2c0-1.4-0.5-2.7-2.2-2.7c-1.3,0-2.4,0.6-3.2,1.1l-0.7-1.3c1-0.6,2.5-1.4,4.2-1.4
			c2.6,0,3.7,1.7,3.7,4.4v6.6h-1.5l-0.2-1.3h0c-1,0.8-2.2,1.5-3.5,1.5c-1.8,0-3.1-1.1-3.1-3C399.4,162.9,401.4,161.7,406,161.2z
			 M403.1,166.8c1,0,1.9-0.5,2.9-1.4v-3c-3.6,0.4-4.8,1.3-4.8,2.7C401.2,166.3,402,166.8,403.1,166.8z"/>
		<path class="st2" d="M411.2,152.3h1.8V166c0,0.6,0.2,0.8,0.5,0.8c0.1,0,0.2,0,0.4,0l0.2,1.4c-0.2,0.1-0.6,0.2-1,0.2
			c-1.4,0-1.9-0.9-1.9-2.4V152.3z"/>
		<path class="st2" d="M420.8,157c2.7,0,4.3,2,4.3,5c0,0.4,0,0.7-0.1,1h-7.2c0.1,2.3,1.5,3.8,3.6,3.8c1,0,1.9-0.3,2.7-0.8l0.6,1.2
			c-0.9,0.6-2.1,1.1-3.5,1.1c-2.9,0-5.1-2.1-5.1-5.6S418.4,157,420.8,157z M423.5,161.9c0-2.2-1-3.4-2.6-3.4c-1.5,0-2.9,1.2-3.1,3.4
			H423.5z"/>
	</g>
	<g>
		<path class="st5" d="M286.3,232c-3.9,6.3-5.3,11.7-5.3,11.7h15.5c0.5,0,0.9,0.4,0.9,0.9v9.5c0,0.5-0.4,0.9-0.9,0.9h-26.4
			c-0.5,0-0.8-0.4-0.9-0.9c-0.8-5,0.1-10.5,0.1-10.5c0.5-5.1,3-9.6,3-9.6c6.8-12.5,12.9-19.7,12.9-19.7c0.6-1.4,0.3-2.4,0.4-5.1
			v-11.8c0-1.3-1.1-2.4-2.4-2.4h-0.8c-1.3,0-2.4,1.1-2.4,2.4v6.6c0,0.8-0.6,1.6-1.3,1.8l-9.1,2.4c-0.7,0.2-1.3-0.2-1.3-1v-10.3
			c0-6.9,5.7-12.6,12.6-12.6h3.8c6.9,0,12.6,5.7,12.6,12.6v6v5.9c0,4.1-1,8.1-3.2,11.5c-2,3.2-4.5,6.6-6.6,9.8
			C287.1,230.7,286.7,231.4,286.3,232z"/>
		<path class="st5" d="M338.8,186.4v67.2c0,0.8-0.6,1.4-1.4,1.4h-8.9c-0.8,0-1.4-0.6-1.4-1.4v-50.2c-1.7,1.3-4.7,2.9-6.9,3.3
			c-0.4,0.1-0.8,0.1-1.1-0.2c-0.3-0.2-0.5-0.6-0.5-1V198c0-0.6,0.5-1.3,1.2-1.4c0,0,8.2-3.2,9.2-10.8c0.2-0.5,0.6-0.8,1.1-0.8h7.4
			C338.2,185.1,338.8,185.7,338.8,186.4z"/>
		<path class="st5" d="M375.8,243.1c0,6.9-5.7,12.6-12.6,12.6h-3.8c-6.9,0-12.6-5.7-12.6-12.6v-10.9c0-0.8,0.6-1.6,1.3-1.8l9.1-2.4
			c0.7-0.2,1.3,0.2,1.3,1v13.6c0,1.3,1.1,2.4,2.4,2.4h0.8c1.3,0,2.4-1.1,2.4-2.4v-17.2c0-1.1-0.1-2.3-0.5-2.8
			c-0.3-0.3-0.6-0.8-1.8-0.8h-4.7c-0.6,0-1.2-0.6-1.2-1.2v-7.4c0-0.6,0.6-1.2,1.2-1.2h4.7c0.9,0,1.5-0.6,1.8-0.9
			c0.3-0.3,0.5-1,0.5-2.1v-11.6c0-1.3-1.1-2.4-2.4-2.4h-0.8c-1.3,0-2.4,1.1-2.4,2.4v6.6c0,0.8-0.6,1.6-1.3,1.8l-9.1,2.4
			c-0.7,0.2-1.3-0.2-1.3-1v-10.3c0-6.9,5.7-12.6,12.6-12.6h3.8c6.9,0,12.6,5.7,12.6,12.6v11.3c0,0.9-0.1,1.8-0.2,2.6
			c-0.3,1.5-0.9,2.9-1.9,4c-0.8,0.8-1.8,1.5-2.9,2c1.1,0.4,2.1,1,2.9,1.7c0.7,0.7,1.2,1.6,1.6,2.6c0.3,1.3,0.5,2.8,0.5,4.3V243.1z"
			/>
		<path class="st5" d="M400.2,255.7h-3.8c-6.9,0-12.6-5.7-12.6-12.6v-46.2c0-6.9,5.7-12.6,12.6-12.6h3.8c6.9,0,12.6,5.7,12.6,12.6
			v46.2C412.8,250,407.1,255.7,400.2,255.7z M398.7,195h-0.8c-1.3,0-2.4,1.1-2.4,2.4v45.2c0,1.3,1.1,2.4,2.4,2.4h0.8
			c1.3,0,2.4-1.1,2.4-2.4v-45.2C401.1,196.1,400,195,398.7,195z"/>
		<path class="st5" d="M463,220.3v22.8c0,6.9-5.7,12.6-12.6,12.6h-3.8c-6.9,0-12.6-5.7-12.6-12.6V239c0-0.8,0.6-1.6,1.3-1.8l9.1-2.4
			c0.7-0.2,1.3,0.2,1.3,1v6.8c0,1.3,1.1,2.4,2.4,2.4h0.8c1.3,0,2.4-1.1,2.4-2.4v-19.7c0-1.1-0.3-1.9-0.6-2.2
			c-0.3-0.3-0.9-0.8-1.8-0.8h-0.8c-0.9,0-1.5,0.6-1.8,0.9c-0.3,0.3-0.6,1-0.6,2.1v2.8c0,0.6-0.5,1.1-1.1,0.9l-9.5-2.5
			c-0.6-0.2-1.1-0.8-1.1-1.4v-36.3c0-0.8,0.6-1.4,1.4-1.4h5.9h18.1c0.8,0,1.4,0.6,1.4,1.4v8.5c0,0.8-0.6,1.4-1.4,1.4h-13.7v15.1
			c1.9-0.9,4.3-1.4,6.5-1.4c1.4,0,2.7,0.2,3.8,0.5C460.6,211.8,463.1,215.5,463,220.3z"/>
		<path class="st5" d="M489.1,232c-3.9,6.3-5.3,11.7-5.3,11.7h15.5c0.5,0,0.9,0.4,0.9,0.9v9.5c0,0.5-0.4,0.9-0.9,0.9h-26.4
			c-0.5,0-0.8-0.4-0.9-0.9c-0.8-5,0.1-10.5,0.1-10.5c0.5-5.1,3-9.6,3-9.6c6.8-12.5,12.9-19.7,12.9-19.7c0.6-1.4,0.3-2.4,0.4-5.1
			v-11.8c0-1.3-1.1-2.4-2.4-2.4h-0.8c-1.3,0-2.4,1.1-2.4,2.4v6.6c0,0.8-0.6,1.6-1.3,1.8l-9.1,2.4c-0.7,0.2-1.3-0.2-1.3-1v-10.3
			c0-6.9,5.7-12.6,12.6-12.6h3.8c6.9,0,12.6,5.7,12.6,12.6v6v5.9c0,4.1-1,8.1-3.2,11.5c-2,3.2-4.5,6.6-6.6,9.8
			C489.9,230.7,489.5,231.4,489.1,232z"/>
		<path class="st5" d="M537.2,220.3v22.8c0,6.9-5.7,12.6-12.6,12.6h-3.8c-6.9,0-12.6-5.7-12.6-12.6V239c0-0.8,0.6-1.6,1.3-1.8
			l9.1-2.4c0.7-0.2,1.3,0.2,1.3,1v6.8c0,1.3,1.1,2.4,2.4,2.4h0.8c1.3,0,2.4-1.1,2.4-2.4v-19.7c0-1.1-0.3-1.9-0.6-2.2
			c-0.3-0.3-0.9-0.8-1.8-0.8h-0.8c-0.9,0-1.5,0.6-1.8,0.9c-0.3,0.3-0.6,1-0.6,2.1v2.8c0,0.6-0.5,1.1-1.1,0.9l-9.5-2.5
			c-0.6-0.2-1.1-0.8-1.1-1.4v-36.3c0-0.8,0.6-1.4,1.4-1.4h5.9h18.1c0.8,0,1.4,0.6,1.4,1.4v8.5c0,0.8-0.6,1.4-1.4,1.4h-13.7v15.1
			c1.9-0.9,4.3-1.4,6.5-1.4c1.4,0,2.7,0.2,3.8,0.5C534.8,211.8,537.3,215.5,537.2,220.3z"/>
	</g>
</g>
<g id="Calque_4" class="st0">
	<line class="st3" x1="414" y1="362" x2="414" y2="748"/>
	<g class="st1">
		<path class="st2" d="M387.1,255.9v3.6h-1.8v-15.2h1.5l0.2,1.2h0.1c1-0.8,2.2-1.5,3.4-1.5c2.8,0,4.2,2.1,4.2,5.5
			c0,3.6-2.2,5.8-4.6,5.8c-1,0-2-0.5-3-1.2L387.1,255.9z M389.8,253.7c1.8,0,3.1-1.6,3.1-4.2c0-2.4-0.8-3.9-2.8-3.9
			c-0.9,0-1.8,0.5-2.9,1.5v5.6C388.1,253.4,389.1,253.7,389.8,253.7z"/>
		<path class="st2" d="M401.7,244c2.6,0,5,2,5,5.6c0,3.5-2.3,5.6-5,5.6s-5-2-5-5.6C396.8,246.1,399.1,244,401.7,244z M401.7,253.8
			c1.8,0,3.1-1.6,3.1-4.1c0-2.5-1.2-4.1-3.1-4.1c-1.8,0-3.1,1.7-3.1,4.1C398.6,252.1,399.9,253.8,401.7,253.8z"/>
		<path class="st2" d="M411.3,255.9v3.6h-1.8v-15.2h1.5l0.2,1.2h0.1c1-0.8,2.2-1.5,3.4-1.5c2.8,0,4.2,2.1,4.2,5.5
			c0,3.6-2.2,5.8-4.6,5.8c-1,0-2-0.5-3-1.2L411.3,255.9z M413.9,253.7c1.8,0,3.1-1.6,3.1-4.2c0-2.4-0.8-3.9-2.8-3.9
			c-0.9,0-1.8,0.5-2.9,1.5v5.6C412.2,253.4,413.2,253.7,413.9,253.7z"/>
		<path class="st2" d="M421.5,244.3h1.8v6.5c0,2,0.6,2.9,2,2.9c1.1,0,1.9-0.5,2.9-1.8v-7.6h1.8V255h-1.5l-0.2-1.7h-0.1
			c-1,1.2-2,1.9-3.5,1.9c-2.3,0-3.3-1.5-3.3-4.2V244.3z"/>
		<path class="st2" d="M433.6,239.3h1.8V253c0,0.6,0.2,0.8,0.5,0.8c0.1,0,0.2,0,0.4,0l0.2,1.4c-0.2,0.1-0.5,0.2-1,0.2
			c-1.4,0-1.9-0.9-1.9-2.4V239.3z"/>
		<path class="st2" d="M445.3,248.2c0-1.4-0.5-2.7-2.2-2.7c-1.3,0-2.4,0.6-3.2,1.1l-0.7-1.3c1-0.6,2.5-1.4,4.2-1.4
			c2.6,0,3.7,1.7,3.7,4.4v6.6h-1.5l-0.2-1.3h0c-1,0.8-2.2,1.5-3.5,1.5c-1.8,0-3.1-1.1-3.1-3C438.7,249.9,440.8,248.7,445.3,248.2z
			 M442.4,253.8c1,0,1.9-0.5,2.9-1.4v-3c-3.6,0.4-4.8,1.3-4.8,2.7C440.5,253.3,441.3,253.8,442.4,253.8z"/>
		<path class="st2" d="M450.8,245.8h-1.6v-1.4l1.7-0.1l0.2-3h1.5v3h2.9v1.5h-2.9v5.9c0,1.3,0.4,2.1,1.6,2.1c0.4,0,0.9-0.2,1.2-0.3
			l0.4,1.4c-0.6,0.2-1.3,0.4-2,0.4c-2.3,0-3.1-1.5-3.1-3.6V245.8z"/>
		<path class="st2" d="M457.6,240.9c0-0.7,0.5-1.2,1.3-1.2s1.3,0.5,1.3,1.2c0,0.7-0.5,1.2-1.3,1.2S457.6,241.6,457.6,240.9z
			 M458,244.3h1.8V255H458V244.3z"/>
		<path class="st2" d="M467.5,244c2.6,0,5,2,5,5.6c0,3.5-2.3,5.6-5,5.6s-5-2-5-5.6C462.6,246.1,464.9,244,467.5,244z M467.5,253.8
			c1.8,0,3.1-1.6,3.1-4.1c0-2.5-1.2-4.1-3.1-4.1c-1.8,0-3.1,1.7-3.1,4.1C464.4,252.1,465.7,253.8,467.5,253.8z"/>
		<path class="st2" d="M475.3,244.3h1.5l0.2,1.5h0.1c1-1,2.1-1.8,3.6-1.8c2.2,0,3.3,1.5,3.3,4.2v6.8H482v-6.5c0-2-0.6-2.9-2-2.9
			c-1.1,0-1.8,0.6-2.9,1.7v7.7h-1.8V244.3z"/>
		<path class="st2" d="M492.1,245.8h-1.6v-1.4l1.7-0.1l0.2-3h1.5v3h2.9v1.5h-2.9v5.9c0,1.3,0.4,2.1,1.7,2.1c0.4,0,0.9-0.2,1.2-0.3
			l0.4,1.4c-0.6,0.2-1.3,0.4-2,0.4c-2.3,0-3.1-1.5-3.1-3.6V245.8z"/>
		<path class="st2" d="M503.1,244c2.6,0,5,2,5,5.6c0,3.5-2.3,5.6-5,5.6s-5-2-5-5.6C498.2,246.1,500.5,244,503.1,244z M503.1,253.8
			c1.8,0,3.1-1.6,3.1-4.1c0-2.5-1.2-4.1-3.1-4.1c-1.8,0-3.1,1.7-3.1,4.1C500.1,252.1,501.3,253.8,503.1,253.8z"/>
		<path class="st2" d="M511.2,245.8h-1.6v-1.4l1.7-0.1l0.2-3h1.5v3h2.9v1.5H513v5.9c0,1.3,0.4,2.1,1.7,2.1c0.4,0,0.9-0.2,1.2-0.3
			l0.4,1.4c-0.6,0.2-1.3,0.4-2,0.4c-2.3,0-3.1-1.5-3.1-3.6V245.8z"/>
		<path class="st2" d="M524,248.2c0-1.4-0.5-2.7-2.2-2.7c-1.3,0-2.4,0.6-3.2,1.1l-0.7-1.3c1-0.6,2.5-1.4,4.2-1.4
			c2.6,0,3.7,1.7,3.7,4.4v6.6h-1.5l-0.2-1.3h0c-1,0.8-2.2,1.5-3.5,1.5c-1.8,0-3.1-1.1-3.1-3C517.4,249.9,519.4,248.7,524,248.2z
			 M521.1,253.8c1,0,1.9-0.5,2.9-1.4v-3c-3.6,0.4-4.8,1.3-4.8,2.7C519.2,253.3,520,253.8,521.1,253.8z"/>
		<path class="st2" d="M529.2,239.3h1.8V253c0,0.6,0.2,0.8,0.5,0.8c0.1,0,0.2,0,0.4,0l0.2,1.4c-0.2,0.1-0.6,0.2-1,0.2
			c-1.4,0-1.9-0.9-1.9-2.4V239.3z"/>
		<path class="st2" d="M538.8,244c2.7,0,4.3,2,4.3,5c0,0.4,0,0.7-0.1,1h-7.2c0.1,2.3,1.5,3.8,3.6,3.8c1,0,1.9-0.3,2.7-0.8l0.6,1.2
			c-0.9,0.6-2.1,1.1-3.5,1.1c-2.9,0-5.1-2.1-5.1-5.6S536.4,244,538.8,244z M541.5,248.9c0-2.2-1-3.4-2.6-3.4c-1.5,0-2.9,1.2-3.1,3.4
			H541.5z"/>
	</g>
	<g class="st1">
		<path class="st2" d="M309.2,274.4v67.2c0,0.8-0.6,1.4-1.4,1.4h-8.9c-0.8,0-1.4-0.6-1.4-1.4v-50.2c-1.7,1.3-4.7,2.9-6.9,3.3
			c-0.4,0.1-0.8,0.1-1.1-0.2c-0.3-0.2-0.5-0.6-0.5-1V286c0-0.6,0.5-1.3,1.2-1.4c0,0,8.2-3.2,9.2-10.8c0.2-0.5,0.6-0.8,1.1-0.8h7.4
			C308.6,273.1,309.2,273.7,309.2,274.4z"/>
		<path class="st2" d="M348.4,320c-3.9,6.3-5.3,11.7-5.3,11.7h15.5c0.5,0,0.9,0.4,0.9,0.9v9.5c0,0.5-0.4,0.9-0.9,0.9h-26.4
			c-0.5,0-0.8-0.4-0.9-0.9c-0.8-5,0.1-10.5,0.1-10.5c0.5-5.1,3-9.6,3-9.6c6.8-12.5,12.9-19.7,12.9-19.7c0.6-1.4,0.3-2.4,0.4-5.1
			v-11.8c0-1.3-1.1-2.4-2.4-2.4h-0.8c-1.3,0-2.4,1.1-2.4,2.4v6.6c0,0.8-0.6,1.6-1.3,1.8l-9.1,2.4c-0.7,0.2-1.3-0.2-1.3-1v-10.3
			c0-6.9,5.7-12.6,12.6-12.6h3.8c6.9,0,12.6,5.7,12.6,12.6v6v5.9c0,4.1-1,8.1-3.2,11.5c-2,3.2-4.5,6.6-6.6,9.8
			C349.2,318.7,348.8,319.4,348.4,320z"/>
		<path class="st2" d="M372.8,341.7c0-12.3,0.5-24.7,2.4-36.8c1.6-10,3.9-17.2,5.1-20.9h-13.5c-0.4,0-0.7-0.1-0.9-0.4
			c-0.2-0.2-0.4-0.6-0.4-0.9v-8.4c0-0.3,0.2-0.6,0.4-0.9c0.2-0.2,0.5-0.4,0.9-0.4h24.5c0.3,0,0.8,0.2,1,0.4c0.2,0.3,0.4,0.6,0.4,0.9
			v9.3c-5.6,14.9-7,30.2-7.3,33.6c-0.7,8-0.8,15.7-0.8,24.5c0,0.7-0.6,1.3-1.3,1.3h-9.2C372.9,343,372.8,341.7,372.8,341.7z"/>
		<path class="st2" d="M428.2,284.9v46.2c0,6.9-5.7,12.6-12.6,12.6h-3.8c-6.9,0-12.6-5.7-12.6-12.6V327c0-0.8,0.6-1.6,1.3-1.8
			l9.1-2.4c0.7-0.2,1.3,0.2,1.3,1v6.8c0,1.3,1.1,2.4,2.4,2.4h0.8c1.3,0,2.4-1.1,2.4-2.4v-14.7c-2,0.9-4.3,1.4-6.5,1.4
			c-1.4,0-2.7-0.2-3.8-0.5c-4.7-1.3-7-4.7-7-9.8v-22.1c0-6.9,5.7-12.6,12.6-12.6h3.8C422.5,272.3,428.2,278,428.2,284.9z
			 M416.5,285.4c0-1.3-1.1-2.4-2.4-2.4h-0.8c-1.3,0-2.4,1.1-2.4,2.4v19c0,1.1,0.3,1.9,0.6,2.2c0.3,0.3,0.9,0.8,1.8,0.8h0.8
			c0.9,0,1.5-0.6,1.8-0.9c0.3-0.3,0.6-1,0.6-2.1V285.4z"/>
		<path class="st2" d="M467.4,320c-3.9,6.3-5.3,11.7-5.3,11.7h15.5c0.5,0,0.9,0.4,0.9,0.9v9.5c0,0.5-0.4,0.9-0.9,0.9h-26.4
			c-0.5,0-0.8-0.4-0.9-0.9c-0.8-5,0.1-10.5,0.1-10.5c0.5-5.1,3-9.6,3-9.6c6.8-12.5,12.9-19.7,12.9-19.7c0.6-1.4,0.3-2.4,0.4-5.1
			v-11.8c0-1.3-1.1-2.4-2.4-2.4h-0.8c-1.3,0-2.4,1.1-2.4,2.4v6.6c0,0.8-0.6,1.6-1.3,1.8l-9.1,2.4c-0.7,0.2-1.3-0.2-1.3-1v-10.3
			c0-6.9,5.7-12.6,12.6-12.6h3.8c6.9,0,12.6,5.7,12.6,12.6v6v5.9c0,4.1-1,8.1-3.2,11.5c-2,3.2-4.5,6.6-6.6,9.8
			C468.2,318.7,467.8,319.4,467.4,320z"/>
		<path class="st2" d="M506.7,274.4v67.2c0,0.8-0.6,1.4-1.4,1.4h-8.9c-0.8,0-1.4-0.6-1.4-1.4v-50.2c-1.7,1.3-4.7,2.9-6.9,3.3
			c-0.4,0.1-0.8,0.1-1.1-0.2c-0.3-0.2-0.5-0.6-0.5-1V286c0-0.6,0.5-1.3,1.2-1.4c0,0,8.2-3.2,9.2-10.8c0.2-0.5,0.6-0.8,1.1-0.8h7.4
			C506.1,273.1,506.7,273.7,506.7,274.4z"/>
		<path class="st2" d="M532.7,320c-3.9,6.3-5.3,11.7-5.3,11.7h15.5c0.5,0,0.9,0.4,0.9,0.9v9.5c0,0.5-0.4,0.9-0.9,0.9h-26.4
			c-0.5,0-0.8-0.4-0.9-0.9c-0.8-5,0.1-10.5,0.1-10.5c0.5-5.1,3-9.6,3-9.6c6.8-12.5,12.9-19.7,12.9-19.7c0.6-1.4,0.3-2.4,0.4-5.1
			v-11.8c0-1.3-1.1-2.4-2.4-2.4h-0.8c-1.3,0-2.4,1.1-2.4,2.4v6.6c0,0.8-0.6,1.6-1.3,1.8l-9.1,2.4c-0.7,0.2-1.3-0.2-1.3-1v-10.3
			c0-6.9,5.7-12.6,12.6-12.6h3.8c6.9,0,12.6,5.7,12.6,12.6v6v5.9c0,4.1-1,8.1-3.2,11.5c-2,3.2-4.5,6.6-6.6,9.8
			C533.5,318.7,533.1,319.4,532.7,320z"/>
	</g>
</g>
<g id="Calque_5" class="st0">
	<g class="st1">
		<path class="st2" d="M318.5,477.7c-3.9,6.3-5.3,11.7-5.3,11.7h15.5c0.5,0,0.9,0.4,0.9,0.9v9.5c0,0.5-0.4,0.9-0.9,0.9h-26.4
			c-0.5,0-0.8-0.4-0.9-0.9c-0.8-5,0.1-10.5,0.1-10.5c0.5-5.1,3-9.6,3-9.6c6.8-12.5,12.9-19.7,12.9-19.7c0.6-1.4,0.3-2.4,0.4-5.1V443
			c0-1.3-1.1-2.4-2.4-2.4h-0.8c-1.3,0-2.4,1.1-2.4,2.4v6.6c0,0.8-0.6,1.6-1.3,1.8l-9.1,2.4c-0.7,0.2-1.3-0.2-1.3-1v-10.3
			c0-6.9,5.7-12.6,12.6-12.6h3.8c6.9,0,12.6,5.7,12.6,12.6v6v5.9c0,4.1-1,8.1-3.2,11.5c-2,3.2-4.5,6.6-6.6,9.8
			C319.3,476.4,318.9,477.1,318.5,477.7z"/>
		<path class="st2" d="M366.6,466v22.8c0,6.9-5.7,12.6-12.6,12.6h-3.8c-6.9,0-12.6-5.7-12.6-12.6v-4.1c0-0.8,0.6-1.6,1.3-1.8
			l9.1-2.4c0.7-0.2,1.3,0.2,1.3,1v6.8c0,1.3,1.1,2.4,2.4,2.4h0.8c1.3,0,2.4-1.1,2.4-2.4v-19.7c0-1.1-0.3-1.9-0.6-2.2
			c-0.3-0.3-0.9-0.8-1.8-0.8h-0.8c-0.9,0-1.5,0.6-1.8,0.9c-0.3,0.3-0.6,1-0.6,2.1v2.8c0,0.6-0.5,1.1-1.1,0.9l-9.5-2.5
			c-0.6-0.2-1.1-0.8-1.1-1.4V432c0-0.8,0.6-1.4,1.4-1.4h5.9H363c0.8,0,1.4,0.6,1.4,1.4v8.5c0,0.8-0.6,1.4-1.4,1.4h-13.7v15.1
			c1.9-0.9,4.3-1.4,6.5-1.4c1.4,0,2.7,0.2,3.8,0.5C364.2,457.5,366.7,461.2,366.6,466z"/>
		<path class="st2" d="M404.3,501.4h-3.8c-6.9,0-12.6-5.7-12.6-12.6v-46.2c0-6.9,5.7-12.6,12.6-12.6h3.8c6.9,0,12.6,5.7,12.6,12.6
			v46.2C416.9,495.7,411.2,501.4,404.3,501.4z M402.8,440.6H402c-1.3,0-2.4,1.1-2.4,2.4v45.2c0,1.3,1.1,2.4,2.4,2.4h0.8
			c1.3,0,2.4-1.1,2.4-2.4V443C405.2,441.8,404.1,440.6,402.8,440.6z"/>
		<path class="st2" d="M441.3,501.4h-3.8c-6.9,0-12.6-5.7-12.6-12.6v-46.2c0-6.9,5.7-12.6,12.6-12.6h3.8c6.9,0,12.6,5.7,12.6,12.6
			v46.2C453.9,495.7,448.2,501.4,441.3,501.4z M439.8,440.6H439c-1.3,0-2.4,1.1-2.4,2.4v45.2c0,1.3,1.1,2.4,2.4,2.4h0.8
			c1.3,0,2.4-1.1,2.4-2.4V443C442.2,441.8,441.1,440.6,439.8,440.6z"/>
		<path class="st2" d="M478.3,501.4h-3.8c-6.9,0-12.6-5.7-12.6-12.6v-46.2c0-6.9,5.7-12.6,12.6-12.6h3.8c6.9,0,12.6,5.7,12.6,12.6
			v46.2C490.9,495.7,485.2,501.4,478.3,501.4z M476.8,440.6H476c-1.3,0-2.4,1.1-2.4,2.4v45.2c0,1.3,1.1,2.4,2.4,2.4h0.8
			c1.3,0,2.4-1.1,2.4-2.4V443C479.2,441.8,478.1,440.6,476.8,440.6z"/>
	</g>
	<line class="st3" x1="395" y1="521" x2="395" y2="744"/>
	<g class="st1">
		<path class="st2" d="M295.3,395.3h1.8v4.3l0,1.9c1-0.9,2.2-1.5,3.3-1.5c2.8,0,4.2,2.1,4.2,5.4c0,3.7-2.2,5.8-4.6,5.8
			c-1,0-2.1-0.5-3.1-1.3h-0.1l-0.2,1.1h-1.5V395.3z M299.8,409.7c1.8,0,3.1-1.6,3.1-4.2c0-2.4-0.8-3.9-2.8-3.9
			c-0.9,0-1.8,0.5-2.9,1.5v5.6C298.1,409.4,299.1,409.7,299.8,409.7z"/>
		<path class="st2" d="M313.3,404.2c0-1.4-0.5-2.7-2.2-2.7c-1.3,0-2.4,0.6-3.2,1.1l-0.7-1.3c1-0.6,2.5-1.4,4.2-1.4
			c2.6,0,3.7,1.7,3.7,4.4v6.6h-1.5l-0.2-1.3h0c-1,0.8-2.2,1.5-3.5,1.5c-1.8,0-3.1-1.1-3.1-3C306.7,405.9,308.7,404.7,313.3,404.2z
			 M310.4,409.8c1,0,1.9-0.5,2.9-1.4v-3c-3.6,0.4-4.8,1.3-4.8,2.7C308.5,409.3,309.3,409.8,310.4,409.8z M310.6,395.3h1.5l2.1,3.1
			h-1.3l-1.5-2h-0.1l-1.5,2h-1.3L310.6,395.3z"/>
		<path class="st2" d="M318.8,401.8h-1.6v-1.4l1.7-0.1l0.2-3h1.5v3h2.9v1.5h-2.9v5.9c0,1.3,0.4,2.1,1.7,2.1c0.4,0,0.9-0.2,1.2-0.3
			l0.4,1.4c-0.6,0.2-1.3,0.4-2,0.4c-2.3,0-3.1-1.5-3.1-3.6V401.8z"/>
		<path class="st2" d="M325.6,396.9c0-0.7,0.6-1.2,1.3-1.2s1.3,0.5,1.3,1.2c0,0.7-0.5,1.2-1.3,1.2S325.6,397.6,325.6,396.9z
			 M325.9,400.3h1.8V411h-1.8V400.3z"/>
		<path class="st2" d="M331.3,400.3h1.5l0.2,1.5h0.1c0.9-1,2-1.8,3.3-1.8c1.6,0,2.5,0.8,2.9,2c1.1-1.2,2.2-2,3.5-2
			c2.2,0,3.3,1.5,3.3,4.2v6.8h-1.8v-6.5c0-2-0.6-2.9-2-2.9c-0.8,0-1.7,0.5-2.7,1.7v7.7h-1.8v-6.5c0-2-0.6-2.9-2-2.9
			c-0.8,0-1.7,0.5-2.7,1.7v7.7h-1.8V400.3z"/>
		<path class="st2" d="M353.6,400c2.7,0,4.3,2,4.3,5c0,0.4,0,0.7-0.1,1h-7.2c0.1,2.3,1.5,3.8,3.6,3.8c1,0,1.9-0.3,2.7-0.8l0.6,1.2
			c-0.9,0.6-2.1,1.1-3.5,1.1c-2.9,0-5.1-2.1-5.1-5.6C348.8,402.2,351.1,400,353.6,400z M356.3,404.9c0-2.2-1-3.4-2.6-3.4
			c-1.5,0-2.9,1.2-3.1,3.4H356.3z"/>
		<path class="st2" d="M360.5,400.3h1.5l0.2,1.5h0.1c1-1,2.1-1.8,3.6-1.8c2.2,0,3.3,1.5,3.3,4.2v6.8h-1.8v-6.5c0-2-0.6-2.9-2-2.9
			c-1.1,0-1.8,0.6-2.9,1.7v7.7h-1.8V400.3z"/>
		<path class="st2" d="M372.8,401.8h-1.6v-1.4l1.7-0.1l0.2-3h1.5v3h2.9v1.5h-2.9v5.9c0,1.3,0.4,2.1,1.7,2.1c0.4,0,0.9-0.2,1.2-0.3
			l0.4,1.4c-0.6,0.2-1.3,0.4-2,0.4c-2.3,0-3.1-1.5-3.1-3.6V401.8z"/>
		<path class="st2" d="M379.7,408.6c0.9,0.7,1.9,1.3,3.1,1.3c1.4,0,2.1-0.7,2.1-1.7c0-1.1-1.3-1.6-2.4-2c-1.5-0.5-3.2-1.3-3.2-3.1
			c0-1.7,1.4-3,3.7-3c1.3,0,2.5,0.5,3.3,1.2l-0.9,1.1c-0.7-0.5-1.5-0.9-2.4-0.9c-1.3,0-2,0.7-2,1.5c0,1,1.2,1.4,2.4,1.8
			c1.5,0.6,3.3,1.2,3.3,3.2c0,1.7-1.4,3.2-3.9,3.2c-1.5,0-3-0.6-4-1.5L379.7,408.6z"/>
		<path class="st2" d="M397.5,400c1.2,0,2,0.5,3,1.2l-0.1-1.8v-4.1h1.8V411h-1.5l-0.2-1.3h-0.1c-0.8,0.8-2,1.5-3.2,1.5
			c-2.7,0-4.4-2-4.4-5.6C392.9,402.2,395.1,400,397.5,400z M397.7,409.7c1,0,1.8-0.5,2.7-1.5v-5.6c-0.9-0.8-1.7-1.1-2.6-1.1
			c-1.7,0-3.1,1.7-3.1,4.1C394.7,408.2,395.8,409.7,397.7,409.7z"/>
		<path class="st2" d="M409.8,400c2.7,0,4.3,2,4.3,5c0,0.4,0,0.7-0.1,1h-7.2c0.1,2.3,1.5,3.8,3.6,3.8c1,0,1.9-0.3,2.7-0.8l0.6,1.2
			c-0.9,0.6-2.1,1.1-3.5,1.1c-2.9,0-5.1-2.1-5.1-5.6C405,402.2,407.4,400,409.8,400z M412.5,404.9c0-2.2-1-3.4-2.6-3.4
			c-1.5,0-2.9,1.2-3.1,3.4H412.5z M409.8,398.4h-1.4l2-3.1h1.9L409.8,398.4z"/>
		<path class="st2" d="M416.5,408.6c0.9,0.7,1.9,1.3,3.1,1.3c1.4,0,2.1-0.7,2.1-1.7c0-1.1-1.3-1.6-2.4-2c-1.5-0.5-3.2-1.3-3.2-3.1
			c0-1.7,1.4-3,3.7-3c1.3,0,2.5,0.5,3.3,1.2l-0.9,1.1c-0.7-0.5-1.5-0.9-2.4-0.9c-1.3,0-2,0.7-2,1.5c0,1,1.2,1.4,2.4,1.8
			c1.5,0.6,3.3,1.2,3.3,3.2c0,1.7-1.4,3.2-3.9,3.2c-1.5,0-3-0.6-4-1.5L416.5,408.6z"/>
		<path class="st2" d="M432,404.2c0-1.4-0.5-2.7-2.2-2.7c-1.3,0-2.4,0.6-3.2,1.1l-0.7-1.3c1-0.6,2.5-1.4,4.2-1.4
			c2.6,0,3.7,1.7,3.7,4.4v6.6h-1.5l-0.2-1.3h0c-1,0.8-2.2,1.5-3.5,1.5c-1.8,0-3.1-1.1-3.1-3C425.4,405.9,427.5,404.7,432,404.2z
			 M429.1,409.8c1,0,1.9-0.5,2.9-1.4v-3c-3.6,0.4-4.8,1.3-4.8,2.7C427.2,409.3,428,409.8,429.1,409.8z"/>
		<path class="st2" d="M442,396.8c-0.4-0.2-0.8-0.3-1.2-0.3c-1,0-1.5,0.7-1.5,2.1v1.7h2.3v1.5h-2.3v9.2h-1.8v-9.2h-1.5v-1.4l1.5-0.1
			v-1.7c0-2.2,1-3.5,3.1-3.5c0.7,0,1.3,0.2,1.8,0.4L442,396.8z"/>
		<path class="st2" d="M447.4,400c2.7,0,4.3,2,4.3,5c0,0.4,0,0.7-0.1,1h-7.2c0.1,2.3,1.5,3.8,3.6,3.8c1,0,1.9-0.3,2.7-0.8l0.6,1.2
			c-0.9,0.6-2.1,1.1-3.5,1.1c-2.9,0-5.1-2.1-5.1-5.6C442.6,402.2,445,400,447.4,400z M450.1,404.9c0-2.2-1-3.4-2.6-3.4
			c-1.5,0-2.9,1.2-3.1,3.4H450.1z"/>
		<path class="st2" d="M458.7,400c1.4,0,2.4,0.6,3.1,1.3l-0.9,1.2c-0.6-0.5-1.3-0.9-2.2-0.9c-1.9,0-3.3,1.7-3.3,4.1
			c0,2.4,1.3,4.1,3.3,4.1c1,0,1.9-0.5,2.5-1.1l0.8,1.2c-1,0.9-2.2,1.4-3.5,1.4c-2.8,0-5-2-5-5.6C453.6,402.1,456,400,458.7,400z"/>
		<path class="st2" d="M464.7,401.8h-1.6v-1.4l1.7-0.1l0.2-3h1.5v3h2.9v1.5h-2.9v5.9c0,1.3,0.4,2.1,1.7,2.1c0.4,0,0.9-0.2,1.2-0.3
			l0.4,1.4c-0.6,0.2-1.3,0.4-2,0.4c-2.3,0-3.1-1.5-3.1-3.6V401.8z"/>
		<path class="st2" d="M475.6,400c2.7,0,4.3,2,4.3,5c0,0.4,0,0.7-0.1,1h-7.2c0.1,2.3,1.5,3.8,3.6,3.8c1,0,1.9-0.3,2.7-0.8l0.6,1.2
			c-0.9,0.6-2.1,1.1-3.5,1.1c-2.9,0-5.1-2.1-5.1-5.6C470.8,402.2,473.2,400,475.6,400z M478.3,404.9c0-2.2-1-3.4-2.6-3.4
			c-1.5,0-2.9,1.2-3.1,3.4H478.3z M475.6,398.4h-1.4l2-3.1h1.9L475.6,398.4z"/>
		<path class="st2" d="M482.2,408.6c0.9,0.7,1.9,1.3,3.1,1.3c1.4,0,2.1-0.7,2.1-1.7c0-1.1-1.3-1.6-2.4-2c-1.5-0.5-3.2-1.3-3.2-3.1
			c0-1.7,1.4-3,3.7-3c1.3,0,2.5,0.5,3.3,1.2l-0.9,1.1c-0.7-0.5-1.5-0.9-2.4-0.9c-1.3,0-2,0.7-2,1.5c0,1,1.2,1.4,2.4,1.8
			c1.5,0.6,3.3,1.2,3.3,3.2c0,1.7-1.4,3.2-3.9,3.2c-1.5,0-3-0.6-4-1.5L482.2,408.6z"/>
	</g>
</g>
</svg>
