<?xml version="1.0" encoding="utf-8"?>
<!-- Generator: Adobe Illustrator 21.1.0, SVG Export Plug-In . SVG Version: 6.00 Build 0)  -->
<svg version="1.1" xmlns="http://www.w3.org/2000/svg" xmlns:xlink="http://www.w3.org/1999/xlink" x="0px" y="0px"
	 viewBox="0 0 800 800" style="enable-background:new 0 0 800 800;" xml:space="preserve">
<style type="text/css">
	.st0{display:none;}
	.st1{fill:#FFFFFF;}
	.st2{opacity:0.57;fill:none;stroke:#FFFFFF;stroke-width:6;stroke-miterlimit:10;}
	.st3{display:inline;}
	.st4{display:inline;opacity:0.57;fill:none;stroke:#FFFFFF;stroke-width:6;stroke-miterlimit:10;}
</style>
<g id="Calque_1" class="st0">
</g>
<g id="Calque_2">
	<g>
		<path class="st1" d="M327.5,174v8.3c0,0.4-0.2,0.8-0.4,1c-0.3,0.2-0.6,0.4-0.9,0.4H323v12.6c0,0.8-0.6,1.4-1.4,1.4h-8.9
			c-0.8,0-1.4-0.6-1.4-1.4v-12.6h-15.5c-0.4,0-0.7-0.2-0.9-0.4c-0.3-0.2-0.4-0.6-0.4-1v-8.5c0-0.5,0.2-1,0.2-1
			c10.4-20.4,13-38.9,13.5-43.8c0,0,0.1-1.3,1.4-1.3h12c0.8,0,1.4,0.6,1.4,1.4v43.6h3.2c0.3,0,0.6,0.2,0.9,0.4
			C327.3,173.3,327.5,173.7,327.5,174z M311.2,149.7c0,0-1.8,10.4-7.3,23h7.3V149.7z"/>
		<path class="st1" d="M351.9,198.4h-3.8c-6.9,0-12.6-5.7-12.6-12.6v-46.2c0-6.9,5.7-12.6,12.6-12.6h3.8c6.9,0,12.6,5.7,12.6,12.6
			v46.2C364.5,192.7,358.8,198.4,351.9,198.4z M350.4,137.6h-0.8c-1.3,0-2.4,1.1-2.4,2.4v45.2c0,1.3,1.1,2.4,2.4,2.4h0.8
			c1.3,0,2.4-1.1,2.4-2.4v-45.2C352.8,138.8,351.7,137.6,350.4,137.6z"/>
		<path class="st1" d="M401.5,139.6v46.2c0,6.9-5.7,12.6-12.6,12.6h-3.8c-6.9,0-12.6-5.7-12.6-12.6v-4.1c0-0.8,0.6-1.6,1.3-1.8
			l9.1-2.4c0.7-0.2,1.3,0.2,1.3,1v6.8c0,1.3,1.1,2.4,2.4,2.4h0.8c1.3,0,2.4-1.1,2.4-2.4v-14.7c-2,0.9-4.3,1.4-6.5,1.4
			c-1.4,0-2.7-0.2-3.8-0.5c-4.7-1.3-7-4.7-7-9.8v-22.1c0-6.9,5.7-12.6,12.6-12.6h3.8C395.8,126.9,401.5,132.6,401.5,139.6z
			 M389.8,140.1c0-1.3-1.1-2.4-2.4-2.4h-0.8c-1.3,0-2.4,1.1-2.4,2.4v19c0,1.1,0.3,1.9,0.6,2.2c0.3,0.3,0.9,0.8,1.8,0.8h0.8
			c0.9,0,1.5-0.6,1.8-0.9c0.3-0.3,0.6-1,0.6-2.1V140.1z"/>
		<path class="st1" d="M456.8,139.1l-13.6,25.5l13.4,31.7c0.2,0.7-0.2,1.4-1,1.4h-9.9c-0.8,0-1.6-0.5-1.8-1.2l-7.3-16.6l-1.7,3.2
			v13.2c0,0.8-0.6,1.4-1.4,1.4h-8.9c-0.8,0-1.4-0.6-1.4-1.4v-57.2c0-0.8,0.6-1.4,1.4-1.4h8.9c0.8,0,1.4,0.6,1.4,1.4v17.5l9.2-17.7
			c0.3-0.7,1.1-1.2,1.9-1.2h10C456.8,137.6,457.1,138.4,456.8,139.1z"/>
		<path class="st1" d="M502.5,139.1v57.2c0,0.8-0.6,1.4-1.4,1.4h-9.6c-0.8,0-1.4-0.6-1.4-1.4v-26.6l-6.6,23.8c-0.2,0.7-0.8,0.7-1,0
			l-6.6-23.8v26.6c0,0.8-0.6,1.4-1.4,1.4h-9.6c-0.8,0-1.4-0.6-1.4-1.4v-57.2c0-0.8,0.6-1.4,1.4-1.4h8.5c0.8,0,1.5,0.7,1.7,1.4
			l7.9,30.8l7.9-30.8c0.2-0.7,0.9-1.4,1.7-1.4h8.5C501.9,137.6,502.5,138.3,502.5,139.1z"/>
	</g>
	<g>
		<path class="st1" d="M519.6,138.4c-2.1,3.5-2.9,6.4-2.9,6.4h8.5c0.3,0,0.5,0.2,0.5,0.5v5.2c0,0.3-0.2,0.5-0.5,0.5h-14.5
			c-0.3,0-0.4-0.2-0.5-0.5c-0.4-2.7,0.1-5.8,0.1-5.8c0.3-2.8,1.6-5.3,1.6-5.3c3.7-6.9,7.1-10.8,7.1-10.8c0.3-0.8,0.2-1.3,0.2-2.8
			v-6.5c0-0.7-0.6-1.3-1.3-1.3h-0.4c-0.7,0-1.3,0.6-1.3,1.3v3.6c0,0.4-0.3,0.9-0.7,1l-5,1.3c-0.4,0.1-0.7-0.1-0.7-0.5V119
			c0-3.8,3.1-6.9,6.9-6.9h2.1c3.8,0,6.9,3.1,6.9,6.9v3.3v3.2c0,2.3-0.5,4.5-1.8,6.3c-1.1,1.8-2.5,3.6-3.6,5.4
			C520,137.6,519.8,138,519.6,138.4z"/>
	</g>
	<line class="st2" x1="400" y1="218" x2="400" y2="609"/>
	<g>
		<path class="st1" d="M294,113.6c0.9,0.7,1.9,1.3,3.1,1.3c1.4,0,2.1-0.7,2.1-1.7c0-1.1-1.3-1.6-2.4-2c-1.5-0.5-3.2-1.3-3.2-3.1
			c0-1.7,1.4-3,3.7-3c1.3,0,2.5,0.5,3.3,1.2l-0.9,1.1c-0.7-0.6-1.5-0.9-2.4-0.9c-1.3,0-2,0.7-2,1.5c0,1,1.2,1.4,2.4,1.8
			c1.5,0.6,3.3,1.2,3.3,3.2c0,1.7-1.4,3.2-3.9,3.2c-1.5,0-3-0.6-4-1.5L294,113.6z"/>
		<path class="st1" d="M303.4,105.3h1.8v6.5c0,2,0.6,2.9,2,2.9c1.1,0,1.9-0.5,2.9-1.8v-7.6h1.8V116h-1.5l-0.2-1.7h-0.1
			c-1,1.2-2,1.9-3.5,1.9c-2.3,0-3.3-1.5-3.3-4.2V105.3z"/>
		<path class="st1" d="M315.5,105.3h1.5l0.2,1.9h0.1c0.7-1.3,1.8-2.2,3-2.2c0.5,0,0.8,0.1,1.1,0.2l-0.4,1.6c-0.4-0.1-0.6-0.2-1-0.2
			c-0.9,0-2,0.7-2.7,2.5v6.9h-1.8V105.3z"/>
		<path class="st1" d="M328,101.8c-0.4-0.2-0.8-0.3-1.2-0.3c-1,0-1.5,0.7-1.5,2.1v1.7h2.3v1.5h-2.3v9.2h-1.8v-9.2H322v-1.4l1.5-0.1
			v-1.7c0-2.2,1-3.5,3.1-3.5c0.7,0,1.3,0.2,1.8,0.4L328,101.8z"/>
		<path class="st1" d="M335.2,109.2c0-1.4-0.5-2.7-2.2-2.7c-1.3,0-2.4,0.6-3.2,1.1l-0.7-1.3c1-0.6,2.5-1.4,4.2-1.4
			c2.6,0,3.7,1.7,3.7,4.4v6.6h-1.5l-0.2-1.3h0c-1,0.8-2.2,1.5-3.5,1.5c-1.8,0-3.1-1.1-3.1-3C328.6,110.9,330.6,109.7,335.2,109.2z
			 M332.3,114.8c1,0,1.9-0.5,2.9-1.4v-3c-3.6,0.4-4.8,1.3-4.8,2.7C330.4,114.3,331.2,114.8,332.3,114.8z"/>
		<path class="st1" d="M344.8,105c1.4,0,2.4,0.6,3.1,1.3l-0.9,1.2c-0.6-0.6-1.3-0.9-2.2-0.9c-1.9,0-3.3,1.7-3.3,4.1
			c0,2.4,1.3,4.1,3.3,4.1c1,0,1.9-0.5,2.5-1.1l0.8,1.2c-1,0.9-2.2,1.4-3.5,1.4c-2.8,0-5-2-5-5.6C339.6,107.1,342,105,344.8,105z"/>
		<path class="st1" d="M354,105c2.7,0,4.3,2,4.3,5c0,0.4,0,0.7-0.1,1H351c0.1,2.3,1.5,3.8,3.6,3.8c1,0,1.9-0.3,2.7-0.8l0.6,1.2
			c-0.9,0.6-2.1,1.1-3.5,1.1c-2.9,0-5.1-2.1-5.1-5.6S351.5,105,354,105z M356.7,109.9c0-2.2-1-3.4-2.6-3.4c-1.5,0-2.9,1.2-3.1,3.4
			H356.7z"/>
		<path class="st1" d="M369.2,105c1.2,0,2,0.5,3,1.2l-0.1-1.8v-4.1h1.8V116h-1.5l-0.2-1.3h-0.1c-0.8,0.8-2,1.5-3.2,1.5
			c-2.7,0-4.4-2-4.4-5.6C364.6,107.2,366.8,105,369.2,105z M369.4,114.7c1,0,1.8-0.5,2.7-1.5v-5.6c-0.9-0.8-1.7-1.1-2.6-1.1
			c-1.7,0-3.1,1.7-3.1,4.1C366.4,113.2,367.5,114.7,369.4,114.7z"/>
		<path class="st1" d="M381.5,105c2.7,0,4.3,2,4.3,5c0,0.4,0,0.7-0.1,1h-7.2c0.1,2.3,1.5,3.8,3.6,3.8c1,0,1.9-0.3,2.7-0.8l0.6,1.2
			c-0.9,0.6-2.1,1.1-3.5,1.1c-2.9,0-5.1-2.1-5.1-5.6S379.1,105,381.5,105z M384.2,109.9c0-2.2-1-3.4-2.6-3.4c-1.5,0-2.9,1.2-3.1,3.4
			H384.2z"/>
		<path class="st1" d="M392.9,100.3h1.8V114c0,0.6,0.2,0.8,0.5,0.8c0.1,0,0.2,0,0.4,0l0.2,1.4c-0.2,0.1-0.6,0.2-1,0.2
			c-1.4,0-1.9-0.9-1.9-2.4V100.3z"/>
		<path class="st1" d="M404.6,109.2c0-1.4-0.5-2.7-2.2-2.7c-1.3,0-2.4,0.6-3.2,1.1l-0.7-1.3c1-0.6,2.5-1.4,4.2-1.4
			c2.6,0,3.7,1.7,3.7,4.4v6.6h-1.5l-0.2-1.3h0c-1,0.8-2.2,1.5-3.5,1.5c-1.8,0-3.1-1.1-3.1-3C398,110.9,400,109.7,404.6,109.2z
			 M401.6,114.8c1,0,1.9-0.5,2.9-1.4v-3c-3.6,0.4-4.8,1.3-4.8,2.7C399.8,114.3,400.6,114.8,401.6,114.8z"/>
		<path class="st1" d="M413.1,115l5.6-8.3h-5v-1.5h7.3v1l-5.6,8.3h5.8v1.5h-8.1V115z"/>
		<path class="st1" d="M427.5,105c2.6,0,5,2,5,5.6c0,3.5-2.3,5.6-5,5.6s-5-2-5-5.6C422.5,107.1,424.9,105,427.5,105z M427.5,114.8
			c1.8,0,3.1-1.6,3.1-4.1c0-2.5-1.2-4.1-3.1-4.1c-1.8,0-3.1,1.7-3.1,4.1C424.4,113.1,425.7,114.8,427.5,114.8z"/>
		<path class="st1" d="M435.3,105.3h1.5l0.2,1.5h0.1c1-1,2.1-1.8,3.6-1.8c2.2,0,3.3,1.5,3.3,4.2v6.8H442v-6.5c0-2-0.6-2.9-2-2.9
			c-1.1,0-1.8,0.6-2.9,1.7v7.7h-1.8V105.3z"/>
		<path class="st1" d="M451.3,105c2.7,0,4.3,2,4.3,5c0,0.4,0,0.7-0.1,1h-7.2c0.1,2.3,1.5,3.8,3.6,3.8c1,0,1.9-0.3,2.7-0.8l0.6,1.2
			c-0.9,0.6-2.1,1.1-3.5,1.1c-2.9,0-5.1-2.1-5.1-5.6S448.9,105,451.3,105z M454,109.9c0-2.2-1-3.4-2.6-3.4c-1.5,0-2.9,1.2-3.1,3.4
			H454z"/>
	</g>
</g>
<g id="Calque_3" class="st0">
	<g class="st3">
		<path class="st1" d="M286.7,189v67.2c0,0.8-0.6,1.4-1.4,1.4h-8.9c-0.8,0-1.4-0.6-1.4-1.4v-50.2c-1.7,1.3-4.7,2.9-6.9,3.3
			c-0.4,0.1-0.8,0.1-1.1-0.2c-0.3-0.2-0.5-0.6-0.5-1v-7.5c0-0.6,0.5-1.3,1.2-1.4c0,0,8.2-3.2,9.2-10.8c0.2-0.5,0.6-0.8,1.1-0.8h7.4
			C286.1,187.7,286.7,188.3,286.7,189z"/>
		<path class="st1" d="M294.7,245.8v-46.2c0-6.9,5.7-12.6,12.6-12.6h3.8c6.9,0,12.6,5.7,12.6,12.6v4.1c0,0.8-0.6,1.6-1.3,1.8
			l-9.1,2.4c-0.7,0.2-1.3-0.2-1.3-1v-6.8c0-1.3-1.1-2.4-2.4-2.4h-0.8c-1.3,0-2.4,1.1-2.4,2.4v14.7c1.9-0.9,4.3-1.4,6.5-1.4
			c1.4,0,2.7,0.2,3.8,0.5c4.6,1.3,7,4.7,7,9.8v22.1c0,6.9-5.7,12.6-12.6,12.6h-3.8C300.4,258.4,294.7,252.7,294.7,245.8z
			 M306.4,245.3c0,1.3,1.1,2.4,2.4,2.4h0.8c1.3,0,2.4-1.1,2.4-2.4v-19c0-1.1-0.3-1.9-0.6-2.2c-0.3-0.3-0.9-0.8-1.8-0.8h-0.8
			c-0.9,0-1.5,0.6-1.8,0.9c-0.3,0.3-0.6,1-0.6,2.1V245.3z"/>
		<path class="st1" d="M365.1,189v67.2c0,0.8-0.6,1.4-1.4,1.4h-8.9c-0.8,0-1.4-0.6-1.4-1.4v-50.2c-1.7,1.3-4.7,2.9-6.9,3.3
			c-0.4,0.1-0.8,0.1-1.1-0.2c-0.3-0.2-0.5-0.6-0.5-1v-7.5c0-0.6,0.5-1.3,1.2-1.4c0,0,8.2-3.2,9.2-10.8c0.2-0.5,0.6-0.8,1.1-0.8h7.4
			C364.5,187.7,365.1,188.3,365.1,189z"/>
		<path class="st1" d="M393.3,189v67.2c0,0.8-0.6,1.4-1.4,1.4H383c-0.8,0-1.4-0.6-1.4-1.4v-50.2c-1.7,1.3-4.7,2.9-6.9,3.3
			c-0.4,0.1-0.8,0.1-1.1-0.2c-0.3-0.2-0.5-0.6-0.5-1v-7.5c0-0.6,0.5-1.3,1.2-1.4c0,0,8.2-3.2,9.2-10.8c0.2-0.5,0.6-0.8,1.1-0.8h7.4
			C392.7,187.7,393.3,188.3,393.3,189z"/>
		<path class="st1" d="M421.5,189v67.2c0,0.8-0.6,1.4-1.4,1.4h-8.9c-0.8,0-1.4-0.6-1.4-1.4v-50.2c-1.7,1.3-4.7,2.9-6.9,3.3
			c-0.4,0.1-0.8,0.1-1.1-0.2c-0.3-0.2-0.5-0.6-0.5-1v-7.5c0-0.6,0.5-1.3,1.2-1.4c0,0,8.2-3.2,9.2-10.8c0.2-0.5,0.6-0.8,1.1-0.8h7.4
			C420.9,187.7,421.5,188.3,421.5,189z"/>
		<path class="st1" d="M459.1,258.4h-3.8c-6.9,0-12.6-5.7-12.6-12.6v-46.2c0-6.9,5.7-12.6,12.6-12.6h3.8c6.9,0,12.6,5.7,12.6,12.6
			v46.2C471.7,252.7,466,258.4,459.1,258.4z M457.6,197.6h-0.8c-1.3,0-2.4,1.1-2.4,2.4v45.2c0,1.3,1.1,2.4,2.4,2.4h0.8
			c1.3,0,2.4-1.1,2.4-2.4v-45.2C460,198.8,458.9,197.6,457.6,197.6z"/>
		<path class="st1" d="M496.1,258.4h-3.8c-6.9,0-12.6-5.7-12.6-12.6v-46.2c0-6.9,5.7-12.6,12.6-12.6h3.8c6.9,0,12.6,5.7,12.6,12.6
			v46.2C508.7,252.7,503,258.4,496.1,258.4z M494.6,197.6h-0.8c-1.3,0-2.4,1.1-2.4,2.4v45.2c0,1.3,1.1,2.4,2.4,2.4h0.8
			c1.3,0,2.4-1.1,2.4-2.4v-45.2C497,198.8,495.9,197.6,494.6,197.6z"/>
		<path class="st1" d="M533.1,258.4h-3.8c-6.9,0-12.6-5.7-12.6-12.6v-46.2c0-6.9,5.7-12.6,12.6-12.6h3.8c6.9,0,12.6,5.7,12.6,12.6
			v46.2C545.7,252.7,540,258.4,533.1,258.4z M531.6,197.6h-0.8c-1.3,0-2.4,1.1-2.4,2.4v45.2c0,1.3,1.1,2.4,2.4,2.4h0.8
			c1.3,0,2.4-1.1,2.4-2.4v-45.2C534,198.8,532.9,197.6,531.6,197.6z"/>
	</g>
	<line class="st4" x1="410" y1="270" x2="410" y2="755"/>
	<g class="st3">
		<path class="st1" d="M266.1,168.9v3.6h-1.8v-15.2h1.5l0.2,1.2h0.1c1-0.8,2.2-1.5,3.4-1.5c2.8,0,4.2,2.1,4.2,5.5
			c0,3.6-2.2,5.8-4.6,5.8c-1,0-2-0.5-3-1.2L266.1,168.9z M268.8,166.7c1.8,0,3.1-1.6,3.1-4.2c0-2.4-0.8-3.9-2.8-3.9
			c-0.9,0-1.8,0.5-2.9,1.5v5.6C267.1,166.4,268.1,166.7,268.8,166.7z"/>
		<path class="st1" d="M280.7,157c2.6,0,5,2,5,5.6c0,3.5-2.3,5.6-5,5.6s-5-2-5-5.6C275.8,159.1,278.1,157,280.7,157z M280.7,166.8
			c1.8,0,3.1-1.6,3.1-4.1c0-2.5-1.2-4.1-3.1-4.1c-1.8,0-3.1,1.7-3.1,4.1C277.6,165.1,278.9,166.8,280.7,166.8z"/>
		<path class="st1" d="M290.3,168.9v3.6h-1.8v-15.2h1.5l0.2,1.2h0.1c1-0.8,2.2-1.5,3.4-1.5c2.8,0,4.2,2.1,4.2,5.5
			c0,3.6-2.2,5.8-4.6,5.8c-1,0-2-0.5-3-1.2L290.3,168.9z M292.9,166.7c1.8,0,3.1-1.6,3.1-4.2c0-2.4-0.8-3.9-2.8-3.9
			c-0.9,0-1.8,0.5-2.9,1.5v5.6C291.2,166.4,292.2,166.7,292.9,166.7z"/>
		<path class="st1" d="M300.5,157.3h1.8v6.5c0,2,0.6,2.9,2,2.9c1.1,0,1.9-0.5,2.9-1.8v-7.6h1.8V168h-1.5l-0.2-1.7h-0.1
			c-1,1.2-2,1.9-3.5,1.9c-2.3,0-3.3-1.5-3.3-4.2V157.3z"/>
		<path class="st1" d="M312.6,152.3h1.8V166c0,0.6,0.2,0.8,0.5,0.8c0.1,0,0.2,0,0.4,0l0.2,1.4c-0.2,0.1-0.6,0.2-1,0.2
			c-1.4,0-1.9-0.9-1.9-2.4V152.3z"/>
		<path class="st1" d="M324.3,161.2c0-1.4-0.5-2.7-2.2-2.7c-1.3,0-2.4,0.6-3.2,1.1l-0.7-1.3c1-0.6,2.5-1.4,4.2-1.4
			c2.6,0,3.7,1.7,3.7,4.4v6.6h-1.5l-0.2-1.3h0c-1,0.8-2.2,1.5-3.5,1.5c-1.8,0-3.1-1.1-3.1-3C317.7,162.9,319.7,161.7,324.3,161.2z
			 M321.4,166.8c1,0,1.9-0.5,2.9-1.4v-3c-3.6,0.4-4.8,1.3-4.8,2.7C319.5,166.3,320.3,166.8,321.4,166.8z"/>
		<path class="st1" d="M329.8,158.8h-1.6v-1.4l1.7-0.1l0.2-3h1.5v3h2.9v1.5h-2.9v5.9c0,1.3,0.4,2.1,1.6,2.1c0.4,0,0.9-0.2,1.2-0.3
			l0.4,1.4c-0.6,0.2-1.3,0.4-2,0.4c-2.3,0-3.1-1.5-3.1-3.6V158.8z"/>
		<path class="st1" d="M336.6,153.9c0-0.7,0.5-1.2,1.3-1.2s1.3,0.5,1.3,1.2c0,0.7-0.5,1.2-1.3,1.2S336.6,154.6,336.6,153.9z
			 M337,157.3h1.8V168H337V157.3z"/>
		<path class="st1" d="M346.5,157c2.6,0,5,2,5,5.6c0,3.5-2.3,5.6-5,5.6s-5-2-5-5.6C341.6,159.1,343.9,157,346.5,157z M346.5,166.8
			c1.8,0,3.1-1.6,3.1-4.1c0-2.5-1.2-4.1-3.1-4.1c-1.8,0-3.1,1.7-3.1,4.1C343.4,165.1,344.7,166.8,346.5,166.8z"/>
		<path class="st1" d="M354.3,157.3h1.5l0.2,1.5h0.1c1-1,2.1-1.8,3.6-1.8c2.2,0,3.3,1.5,3.3,4.2v6.8H361v-6.5c0-2-0.6-2.9-2-2.9
			c-1.1,0-1.8,0.6-2.9,1.7v7.7h-1.8V157.3z"/>
		<path class="st1" d="M371.1,158.8h-1.6v-1.4l1.7-0.1l0.2-3h1.5v3h2.9v1.5h-2.9v5.9c0,1.3,0.4,2.1,1.7,2.1c0.4,0,0.9-0.2,1.2-0.3
			l0.4,1.4c-0.6,0.2-1.3,0.4-2,0.4c-2.3,0-3.1-1.5-3.1-3.6V158.8z"/>
		<path class="st1" d="M382.1,157c2.6,0,5,2,5,5.6c0,3.5-2.3,5.6-5,5.6s-5-2-5-5.6C377.2,159.1,379.5,157,382.1,157z M382.1,166.8
			c1.8,0,3.1-1.6,3.1-4.1c0-2.5-1.2-4.1-3.1-4.1c-1.8,0-3.1,1.7-3.1,4.1C379.1,165.1,380.3,166.8,382.1,166.8z"/>
		<path class="st1" d="M390.2,158.8h-1.6v-1.4l1.7-0.1l0.2-3h1.5v3h2.9v1.5H392v5.9c0,1.3,0.4,2.1,1.7,2.1c0.4,0,0.9-0.2,1.2-0.3
			l0.4,1.4c-0.6,0.2-1.3,0.4-2,0.4c-2.3,0-3.1-1.5-3.1-3.6V158.8z"/>
		<path class="st1" d="M403,161.2c0-1.4-0.5-2.7-2.2-2.7c-1.3,0-2.4,0.6-3.2,1.1l-0.7-1.3c1-0.6,2.5-1.4,4.2-1.4
			c2.6,0,3.7,1.7,3.7,4.4v6.6h-1.5l-0.2-1.3h0c-1,0.8-2.2,1.5-3.5,1.5c-1.8,0-3.1-1.1-3.1-3C396.4,162.9,398.4,161.7,403,161.2z
			 M400.1,166.8c1,0,1.9-0.5,2.9-1.4v-3c-3.6,0.4-4.8,1.3-4.8,2.7C398.2,166.3,399,166.8,400.1,166.8z"/>
		<path class="st1" d="M408.2,152.3h1.8V166c0,0.6,0.2,0.8,0.5,0.8c0.1,0,0.2,0,0.4,0l0.2,1.4c-0.2,0.1-0.6,0.2-1,0.2
			c-1.4,0-1.9-0.9-1.9-2.4V152.3z"/>
		<path class="st1" d="M417.8,157c2.7,0,4.3,2,4.3,5c0,0.4,0,0.7-0.1,1h-7.2c0.1,2.3,1.5,3.8,3.6,3.8c1,0,1.9-0.3,2.7-0.8l0.6,1.2
			c-0.9,0.6-2.1,1.1-3.5,1.1c-2.9,0-5.1-2.1-5.1-5.6S415.4,157,417.8,157z M420.5,161.9c0-2.2-1-3.4-2.6-3.4c-1.5,0-2.9,1.2-3.1,3.4
			H420.5z"/>
	</g>
</g>
<g id="Calque_4" class="st0">
	<g class="st3">
		<path class="st1" d="M270.5,332.8v-46.2c0-6.9,5.7-12.6,12.6-12.6h3.8c6.9,0,12.6,5.7,12.6,12.6v4.1c0,0.8-0.6,1.6-1.3,1.8
			l-9.1,2.4c-0.7,0.2-1.3-0.2-1.3-1v-6.8c0-1.3-1.1-2.4-2.4-2.4h-0.8c-1.3,0-2.4,1.1-2.4,2.4v14.7c1.9-0.9,4.3-1.4,6.5-1.4
			c1.4,0,2.7,0.2,3.8,0.5c4.6,1.3,7,4.7,7,9.8v22.1c0,6.9-5.7,12.6-12.6,12.6h-3.8C276.2,345.4,270.5,339.7,270.5,332.8z
			 M282.2,332.3c0,1.3,1.1,2.4,2.4,2.4h0.8c1.3,0,2.4-1.1,2.4-2.4v-19c0-1.1-0.3-1.9-0.6-2.2c-0.3-0.3-0.9-0.8-1.8-0.8h-0.8
			c-0.9,0-1.5,0.6-1.8,0.9c-0.3,0.3-0.6,1-0.6,2.1V332.3z"/>
		<path class="st1" d="M336.5,332.8c0,6.9-5.7,12.6-12.6,12.6h-3.8c-6.9,0-12.6-5.7-12.6-12.6v-10.9c0-0.8,0.6-1.6,1.3-1.8l9.1-2.4
			c0.7-0.2,1.3,0.2,1.3,1v13.6c0,1.3,1.1,2.4,2.4,2.4h0.8c1.3,0,2.4-1.1,2.4-2.4v-17.2c0-1.1-0.1-2.3-0.5-2.8
			c-0.3-0.3-0.6-0.8-1.8-0.8h-4.7c-0.6,0-1.2-0.6-1.2-1.2v-7.4c0-0.6,0.6-1.2,1.2-1.2h4.7c0.9,0,1.5-0.6,1.8-0.9
			c0.3-0.3,0.5-1,0.5-2.1v-11.6c0-1.3-1.1-2.4-2.4-2.4h-0.8c-1.3,0-2.4,1.1-2.4,2.4v6.6c0,0.8-0.6,1.6-1.3,1.8l-9.1,2.4
			c-0.7,0.2-1.3-0.2-1.3-1v-10.3c0-6.9,5.7-12.6,12.6-12.6h3.8c6.9,0,12.6,5.7,12.6,12.6v11.3c0,0.9-0.1,1.8-0.2,2.6
			c-0.3,1.5-0.9,2.9-1.9,4c-0.8,0.8-1.8,1.5-2.9,2c1.1,0.4,2.1,1,2.9,1.7c0.7,0.7,1.2,1.6,1.6,2.6c0.3,1.3,0.5,2.8,0.5,4.3V332.8z"
			/>
		<path class="st1" d="M375.7,321.7c-3.9,6.3-5.3,11.7-5.3,11.7h15.5c0.5,0,0.9,0.4,0.9,0.9v9.5c0,0.5-0.4,0.9-0.9,0.9h-26.4
			c-0.5,0-0.8-0.4-0.9-0.9c-0.8-5,0.1-10.5,0.1-10.5c0.5-5.1,3-9.6,3-9.6c6.8-12.5,12.9-19.7,12.9-19.7c0.6-1.4,0.3-2.4,0.4-5.1
			v-11.8c0-1.3-1.1-2.4-2.4-2.4h-0.8c-1.3,0-2.4,1.1-2.4,2.4v6.6c0,0.8-0.6,1.6-1.3,1.8l-9.1,2.4c-0.7,0.2-1.3-0.2-1.3-1v-10.3
			c0-6.9,5.7-12.6,12.6-12.6h3.8c6.9,0,12.6,5.7,12.6,12.6v6v5.9c0,4.1-1,8.1-3.2,11.5c-2,3.2-4.5,6.6-6.6,9.8
			C376.5,320.4,376.1,321.1,375.7,321.7z"/>
		<path class="st1" d="M423.8,310v22.8c0,6.9-5.7,12.6-12.6,12.6h-3.8c-6.9,0-12.6-5.7-12.6-12.6v-4.1c0-0.8,0.6-1.6,1.3-1.8
			l9.1-2.4c0.7-0.2,1.3,0.2,1.3,1v6.8c0,1.3,1.1,2.4,2.4,2.4h0.8c1.3,0,2.4-1.1,2.4-2.4v-19.7c0-1.1-0.3-1.9-0.6-2.2
			c-0.3-0.3-0.9-0.8-1.8-0.8h-0.8c-0.9,0-1.5,0.6-1.8,0.9c-0.3,0.3-0.6,1-0.6,2.1v2.8c0,0.6-0.5,1.1-1.1,0.9l-9.5-2.5
			c-0.6-0.2-1.1-0.8-1.1-1.4V276c0-0.8,0.6-1.4,1.4-1.4h5.9h18.1c0.8,0,1.4,0.6,1.4,1.4v8.5c0,0.8-0.6,1.4-1.4,1.4h-13.7v15.1
			c1.9-0.9,4.3-1.4,6.5-1.4c1.4,0,2.7,0.2,3.8,0.5C421.4,301.5,423.9,305.2,423.8,310z"/>
		<path class="st1" d="M462.9,321v8.3c0,0.4-0.2,0.8-0.4,1c-0.3,0.2-0.6,0.4-0.9,0.4h-3.2v12.6c0,0.8-0.6,1.4-1.4,1.4h-8.9
			c-0.8,0-1.4-0.6-1.4-1.4v-12.6h-15.5c-0.4,0-0.7-0.2-0.9-0.4c-0.3-0.2-0.4-0.6-0.4-1v-8.5c0-0.5,0.2-1,0.2-1
			c10.4-20.4,13-38.9,13.5-43.8c0,0,0.1-1.3,1.4-1.3h12c0.8,0,1.4,0.6,1.4,1.4v43.6h3.2c0.3,0,0.6,0.2,0.9,0.4
			C462.7,320.3,462.9,320.7,462.9,321z M446.6,296.7c0,0-1.8,10.4-7.3,23h7.3V296.7z"/>
		<path class="st1" d="M500.5,345.4h-3.8c-6.9,0-12.6-5.7-12.6-12.6v-46.2c0-6.9,5.7-12.6,12.6-12.6h3.8c6.9,0,12.6,5.7,12.6,12.6
			v46.2C513.1,339.7,507.4,345.4,500.5,345.4z M499,284.6h-0.8c-1.3,0-2.4,1.1-2.4,2.4v45.2c0,1.3,1.1,2.4,2.4,2.4h0.8
			c1.3,0,2.4-1.1,2.4-2.4v-45.2C501.4,285.8,500.3,284.6,499,284.6z"/>
		<path class="st1" d="M537.5,345.4h-3.8c-6.9,0-12.6-5.7-12.6-12.6v-46.2c0-6.9,5.7-12.6,12.6-12.6h3.8c6.9,0,12.6,5.7,12.6,12.6
			v46.2C550.1,339.7,544.4,345.4,537.5,345.4z M536,284.6h-0.8c-1.3,0-2.4,1.1-2.4,2.4v45.2c0,1.3,1.1,2.4,2.4,2.4h0.8
			c1.3,0,2.4-1.1,2.4-2.4v-45.2C538.4,285.8,537.3,284.6,536,284.6z"/>
		<path class="st1" d="M574.5,345.4h-3.8c-6.9,0-12.6-5.7-12.6-12.6v-46.2c0-6.9,5.7-12.6,12.6-12.6h3.8c6.9,0,12.6,5.7,12.6,12.6
			v46.2C587.1,339.7,581.4,345.4,574.5,345.4z M573,284.6h-0.8c-1.3,0-2.4,1.1-2.4,2.4v45.2c0,1.3,1.1,2.4,2.4,2.4h0.8
			c1.3,0,2.4-1.1,2.4-2.4v-45.2C575.4,285.8,574.3,284.6,573,284.6z"/>
	</g>
	<line class="st4" x1="414" y1="362" x2="414" y2="748"/>
	<g class="st3">
		<path class="st1" d="M430.1,255.9v3.6h-1.8v-15.2h1.5l0.2,1.2h0.1c1-0.8,2.2-1.5,3.4-1.5c2.8,0,4.2,2.1,4.2,5.5
			c0,3.6-2.2,5.8-4.6,5.8c-1,0-2-0.5-3-1.2L430.1,255.9z M432.8,253.7c1.8,0,3.1-1.6,3.1-4.2c0-2.4-0.8-3.9-2.8-3.9
			c-0.9,0-1.8,0.5-2.9,1.5v5.6C431.1,253.4,432.1,253.7,432.8,253.7z"/>
		<path class="st1" d="M444.7,244c2.6,0,5,2,5,5.6c0,3.5-2.3,5.6-5,5.6s-5-2-5-5.6C439.8,246.1,442.1,244,444.7,244z M444.7,253.8
			c1.8,0,3.1-1.6,3.1-4.1c0-2.5-1.2-4.1-3.1-4.1c-1.8,0-3.1,1.7-3.1,4.1C441.6,252.1,442.9,253.8,444.7,253.8z"/>
		<path class="st1" d="M454.3,255.9v3.6h-1.8v-15.2h1.5l0.2,1.2h0.1c1-0.8,2.2-1.5,3.4-1.5c2.8,0,4.2,2.1,4.2,5.5
			c0,3.6-2.2,5.8-4.6,5.8c-1,0-2-0.5-3-1.2L454.3,255.9z M456.9,253.7c1.8,0,3.1-1.6,3.1-4.2c0-2.4-0.8-3.9-2.8-3.9
			c-0.9,0-1.8,0.5-2.9,1.5v5.6C455.2,253.4,456.2,253.7,456.9,253.7z"/>
		<path class="st1" d="M464.5,244.3h1.8v6.5c0,2,0.6,2.9,2,2.9c1.1,0,1.9-0.5,2.9-1.8v-7.6h1.8V255h-1.5l-0.2-1.7h-0.1
			c-1,1.2-2,1.9-3.5,1.9c-2.3,0-3.3-1.5-3.3-4.2V244.3z"/>
		<path class="st1" d="M476.6,239.3h1.8V253c0,0.6,0.2,0.8,0.5,0.8c0.1,0,0.2,0,0.4,0l0.2,1.4c-0.2,0.1-0.5,0.2-1,0.2
			c-1.4,0-1.9-0.9-1.9-2.4V239.3z"/>
		<path class="st1" d="M488.3,248.2c0-1.4-0.5-2.7-2.2-2.7c-1.3,0-2.4,0.6-3.2,1.1l-0.7-1.3c1-0.6,2.5-1.4,4.2-1.4
			c2.6,0,3.7,1.7,3.7,4.4v6.6h-1.5l-0.2-1.3h0c-1,0.8-2.2,1.5-3.5,1.5c-1.8,0-3.1-1.1-3.1-3C481.7,249.9,483.8,248.7,488.3,248.2z
			 M485.4,253.8c1,0,1.9-0.5,2.9-1.4v-3c-3.6,0.4-4.8,1.3-4.8,2.7C483.5,253.3,484.3,253.8,485.4,253.8z"/>
		<path class="st1" d="M493.8,245.8h-1.6v-1.4l1.7-0.1l0.2-3h1.5v3h2.9v1.5h-2.9v5.9c0,1.3,0.4,2.1,1.6,2.1c0.4,0,0.9-0.2,1.2-0.3
			l0.4,1.4c-0.6,0.2-1.3,0.4-2,0.4c-2.3,0-3.1-1.5-3.1-3.6V245.8z"/>
		<path class="st1" d="M500.6,240.9c0-0.7,0.5-1.2,1.3-1.2s1.3,0.5,1.3,1.2c0,0.7-0.5,1.2-1.3,1.2S500.6,241.6,500.6,240.9z
			 M501,244.3h1.8V255H501V244.3z"/>
		<path class="st1" d="M510.5,244c2.6,0,5,2,5,5.6c0,3.5-2.3,5.6-5,5.6s-5-2-5-5.6C505.6,246.1,507.9,244,510.5,244z M510.5,253.8
			c1.8,0,3.1-1.6,3.1-4.1c0-2.5-1.2-4.1-3.1-4.1c-1.8,0-3.1,1.7-3.1,4.1C507.4,252.1,508.7,253.8,510.5,253.8z"/>
		<path class="st1" d="M518.3,244.3h1.5l0.2,1.5h0.1c1-1,2.1-1.8,3.6-1.8c2.2,0,3.3,1.5,3.3,4.2v6.8H525v-6.5c0-2-0.6-2.9-2-2.9
			c-1.1,0-1.8,0.6-2.9,1.7v7.7h-1.8V244.3z"/>
		<path class="st1" d="M535.1,245.8h-1.6v-1.4l1.7-0.1l0.2-3h1.5v3h2.9v1.5h-2.9v5.9c0,1.3,0.4,2.1,1.7,2.1c0.4,0,0.9-0.2,1.2-0.3
			l0.4,1.4c-0.6,0.2-1.3,0.4-2,0.4c-2.3,0-3.1-1.5-3.1-3.6V245.8z"/>
		<path class="st1" d="M546.1,244c2.6,0,5,2,5,5.6c0,3.5-2.3,5.6-5,5.6s-5-2-5-5.6C541.2,246.1,543.5,244,546.1,244z M546.1,253.8
			c1.8,0,3.1-1.6,3.1-4.1c0-2.5-1.2-4.1-3.1-4.1c-1.8,0-3.1,1.7-3.1,4.1C543.1,252.1,544.3,253.8,546.1,253.8z"/>
		<path class="st1" d="M554.2,245.8h-1.6v-1.4l1.7-0.1l0.2-3h1.5v3h2.9v1.5H556v5.9c0,1.3,0.4,2.1,1.7,2.1c0.4,0,0.9-0.2,1.2-0.3
			l0.4,1.4c-0.6,0.2-1.3,0.4-2,0.4c-2.3,0-3.1-1.5-3.1-3.6V245.8z"/>
		<path class="st1" d="M567,248.2c0-1.4-0.5-2.7-2.2-2.7c-1.3,0-2.4,0.6-3.2,1.1l-0.7-1.3c1-0.6,2.5-1.4,4.2-1.4
			c2.6,0,3.7,1.7,3.7,4.4v6.6h-1.5l-0.2-1.3h0c-1,0.8-2.2,1.5-3.5,1.5c-1.8,0-3.1-1.1-3.1-3C560.4,249.9,562.4,248.7,567,248.2z
			 M564.1,253.8c1,0,1.9-0.5,2.9-1.4v-3c-3.6,0.4-4.8,1.3-4.8,2.7C562.2,253.3,563,253.8,564.1,253.8z"/>
		<path class="st1" d="M572.2,239.3h1.8V253c0,0.6,0.2,0.8,0.5,0.8c0.1,0,0.2,0,0.4,0l0.2,1.4c-0.2,0.1-0.6,0.2-1,0.2
			c-1.4,0-1.9-0.9-1.9-2.4V239.3z"/>
		<path class="st1" d="M581.8,244c2.7,0,4.3,2,4.3,5c0,0.4,0,0.7-0.1,1h-7.2c0.1,2.3,1.5,3.8,3.6,3.8c1,0,1.9-0.3,2.7-0.8l0.6,1.2
			c-0.9,0.6-2.1,1.1-3.5,1.1c-2.9,0-5.1-2.1-5.1-5.6S579.4,244,581.8,244z M584.5,248.9c0-2.2-1-3.4-2.6-3.4c-1.5,0-2.9,1.2-3.1,3.4
			H584.5z"/>
	</g>
</g>
<g id="Calque_5" class="st0">
	<g class="st3">
		<path class="st1" d="M318.5,477.7c-3.9,6.3-5.3,11.7-5.3,11.7h15.5c0.5,0,0.9,0.4,0.9,0.9v9.5c0,0.5-0.4,0.9-0.9,0.9h-26.4
			c-0.5,0-0.8-0.4-0.9-0.9c-0.8-5,0.1-10.5,0.1-10.5c0.5-5.1,3-9.6,3-9.6c6.8-12.5,12.9-19.7,12.9-19.7c0.6-1.4,0.3-2.4,0.4-5.1V443
			c0-1.3-1.1-2.4-2.4-2.4h-0.8c-1.3,0-2.4,1.1-2.4,2.4v6.6c0,0.8-0.6,1.6-1.3,1.8l-9.1,2.4c-0.7,0.2-1.3-0.2-1.3-1v-10.3
			c0-6.9,5.7-12.6,12.6-12.6h3.8c6.9,0,12.6,5.7,12.6,12.6v6v5.9c0,4.1-1,8.1-3.2,11.5c-2,3.2-4.5,6.6-6.6,9.8
			C319.3,476.4,318.9,477.1,318.5,477.7z"/>
		<path class="st1" d="M366.6,466v22.8c0,6.9-5.7,12.6-12.6,12.6h-3.8c-6.9,0-12.6-5.7-12.6-12.6v-4.1c0-0.8,0.6-1.6,1.3-1.8
			l9.1-2.4c0.7-0.2,1.3,0.2,1.3,1v6.8c0,1.3,1.1,2.4,2.4,2.4h0.8c1.3,0,2.4-1.1,2.4-2.4v-19.7c0-1.1-0.3-1.9-0.6-2.2
			c-0.3-0.3-0.9-0.8-1.8-0.8h-0.8c-0.9,0-1.5,0.6-1.8,0.9c-0.3,0.3-0.6,1-0.6,2.1v2.8c0,0.6-0.5,1.1-1.1,0.9l-9.5-2.5
			c-0.6-0.2-1.1-0.8-1.1-1.4V432c0-0.8,0.6-1.4,1.4-1.4h5.9H363c0.8,0,1.4,0.6,1.4,1.4v8.5c0,0.8-0.6,1.4-1.4,1.4h-13.7v15.1
			c1.9-0.9,4.3-1.4,6.5-1.4c1.4,0,2.7,0.2,3.8,0.5C364.2,457.5,366.7,461.2,366.6,466z"/>
		<path class="st1" d="M404.3,501.4h-3.8c-6.9,0-12.6-5.7-12.6-12.6v-46.2c0-6.9,5.7-12.6,12.6-12.6h3.8c6.9,0,12.6,5.7,12.6,12.6
			v46.2C416.9,495.7,411.2,501.4,404.3,501.4z M402.8,440.6H402c-1.3,0-2.4,1.1-2.4,2.4v45.2c0,1.3,1.1,2.4,2.4,2.4h0.8
			c1.3,0,2.4-1.1,2.4-2.4V443C405.2,441.8,404.1,440.6,402.8,440.6z"/>
		<path class="st1" d="M441.3,501.4h-3.8c-6.9,0-12.6-5.7-12.6-12.6v-46.2c0-6.9,5.7-12.6,12.6-12.6h3.8c6.9,0,12.6,5.7,12.6,12.6
			v46.2C453.9,495.7,448.2,501.4,441.3,501.4z M439.8,440.6H439c-1.3,0-2.4,1.1-2.4,2.4v45.2c0,1.3,1.1,2.4,2.4,2.4h0.8
			c1.3,0,2.4-1.1,2.4-2.4V443C442.2,441.8,441.1,440.6,439.8,440.6z"/>
		<path class="st1" d="M478.3,501.4h-3.8c-6.9,0-12.6-5.7-12.6-12.6v-46.2c0-6.9,5.7-12.6,12.6-12.6h3.8c6.9,0,12.6,5.7,12.6,12.6
			v46.2C490.9,495.7,485.2,501.4,478.3,501.4z M476.8,440.6H476c-1.3,0-2.4,1.1-2.4,2.4v45.2c0,1.3,1.1,2.4,2.4,2.4h0.8
			c1.3,0,2.4-1.1,2.4-2.4V443C479.2,441.8,478.1,440.6,476.8,440.6z"/>
	</g>
	<line class="st4" x1="395" y1="521" x2="395" y2="744"/>
	<g class="st3">
		<path class="st1" d="M295.3,395.3h1.8v4.3l0,1.9c1-0.9,2.2-1.5,3.3-1.5c2.8,0,4.2,2.1,4.2,5.4c0,3.7-2.2,5.8-4.6,5.8
			c-1,0-2.1-0.5-3.1-1.3h-0.1l-0.2,1.1h-1.5V395.3z M299.8,409.7c1.8,0,3.1-1.6,3.1-4.2c0-2.4-0.8-3.9-2.8-3.9
			c-0.9,0-1.8,0.5-2.9,1.5v5.6C298.1,409.4,299.1,409.7,299.8,409.7z"/>
		<path class="st1" d="M313.3,404.2c0-1.4-0.5-2.7-2.2-2.7c-1.3,0-2.4,0.6-3.2,1.1l-0.7-1.3c1-0.6,2.5-1.4,4.2-1.4
			c2.6,0,3.7,1.7,3.7,4.4v6.6h-1.5l-0.2-1.3h0c-1,0.8-2.2,1.5-3.5,1.5c-1.8,0-3.1-1.1-3.1-3C306.7,405.9,308.7,404.7,313.3,404.2z
			 M310.4,409.8c1,0,1.9-0.5,2.9-1.4v-3c-3.6,0.4-4.8,1.3-4.8,2.7C308.5,409.3,309.3,409.8,310.4,409.8z M310.6,395.3h1.5l2.1,3.1
			h-1.3l-1.5-2h-0.1l-1.5,2h-1.3L310.6,395.3z"/>
		<path class="st1" d="M318.8,401.8h-1.6v-1.4l1.7-0.1l0.2-3h1.5v3h2.9v1.5h-2.9v5.9c0,1.3,0.4,2.1,1.7,2.1c0.4,0,0.9-0.2,1.2-0.3
			l0.4,1.4c-0.6,0.2-1.3,0.4-2,0.4c-2.3,0-3.1-1.5-3.1-3.6V401.8z"/>
		<path class="st1" d="M325.6,396.9c0-0.7,0.6-1.2,1.3-1.2s1.3,0.5,1.3,1.2c0,0.7-0.5,1.2-1.3,1.2S325.6,397.6,325.6,396.9z
			 M325.9,400.3h1.8V411h-1.8V400.3z"/>
		<path class="st1" d="M331.3,400.3h1.5l0.2,1.5h0.1c0.9-1,2-1.8,3.3-1.8c1.6,0,2.5,0.8,2.9,2c1.1-1.2,2.2-2,3.5-2
			c2.2,0,3.3,1.5,3.3,4.2v6.8h-1.8v-6.5c0-2-0.6-2.9-2-2.9c-0.8,0-1.7,0.5-2.7,1.7v7.7h-1.8v-6.5c0-2-0.6-2.9-2-2.9
			c-0.8,0-1.7,0.5-2.7,1.7v7.7h-1.8V400.3z"/>
		<path class="st1" d="M353.6,400c2.7,0,4.3,2,4.3,5c0,0.4,0,0.7-0.1,1h-7.2c0.1,2.3,1.5,3.8,3.6,3.8c1,0,1.9-0.3,2.7-0.8l0.6,1.2
			c-0.9,0.6-2.1,1.1-3.5,1.1c-2.9,0-5.1-2.1-5.1-5.6C348.8,402.2,351.1,400,353.6,400z M356.3,404.9c0-2.2-1-3.4-2.6-3.4
			c-1.5,0-2.9,1.2-3.1,3.4H356.3z"/>
		<path class="st1" d="M360.5,400.3h1.5l0.2,1.5h0.1c1-1,2.1-1.8,3.6-1.8c2.2,0,3.3,1.5,3.3,4.2v6.8h-1.8v-6.5c0-2-0.6-2.9-2-2.9
			c-1.1,0-1.8,0.6-2.9,1.7v7.7h-1.8V400.3z"/>
		<path class="st1" d="M372.8,401.8h-1.6v-1.4l1.7-0.1l0.2-3h1.5v3h2.9v1.5h-2.9v5.9c0,1.3,0.4,2.1,1.7,2.1c0.4,0,0.9-0.2,1.2-0.3
			l0.4,1.4c-0.6,0.2-1.3,0.4-2,0.4c-2.3,0-3.1-1.5-3.1-3.6V401.8z"/>
		<path class="st1" d="M379.7,408.6c0.9,0.7,1.9,1.3,3.1,1.3c1.4,0,2.1-0.7,2.1-1.7c0-1.1-1.3-1.6-2.4-2c-1.5-0.5-3.2-1.3-3.2-3.1
			c0-1.7,1.4-3,3.7-3c1.3,0,2.5,0.5,3.3,1.2l-0.9,1.1c-0.7-0.5-1.5-0.9-2.4-0.9c-1.3,0-2,0.7-2,1.5c0,1,1.2,1.4,2.4,1.8
			c1.5,0.6,3.3,1.2,3.3,3.2c0,1.7-1.4,3.2-3.9,3.2c-1.5,0-3-0.6-4-1.5L379.7,408.6z"/>
		<path class="st1" d="M397.5,400c1.2,0,2,0.5,3,1.2l-0.1-1.8v-4.1h1.8V411h-1.5l-0.2-1.3h-0.1c-0.8,0.8-2,1.5-3.2,1.5
			c-2.7,0-4.4-2-4.4-5.6C392.9,402.2,395.1,400,397.5,400z M397.7,409.7c1,0,1.8-0.5,2.7-1.5v-5.6c-0.9-0.8-1.7-1.1-2.6-1.1
			c-1.7,0-3.1,1.7-3.1,4.1C394.7,408.2,395.8,409.7,397.7,409.7z"/>
		<path class="st1" d="M409.8,400c2.7,0,4.3,2,4.3,5c0,0.4,0,0.7-0.1,1h-7.2c0.1,2.3,1.5,3.8,3.6,3.8c1,0,1.9-0.3,2.7-0.8l0.6,1.2
			c-0.9,0.6-2.1,1.1-3.5,1.1c-2.9,0-5.1-2.1-5.1-5.6C405,402.2,407.4,400,409.8,400z M412.5,404.9c0-2.2-1-3.4-2.6-3.4
			c-1.5,0-2.9,1.2-3.1,3.4H412.5z M409.8,398.4h-1.4l2-3.1h1.9L409.8,398.4z"/>
		<path class="st1" d="M416.5,408.6c0.9,0.7,1.9,1.3,3.1,1.3c1.4,0,2.1-0.7,2.1-1.7c0-1.1-1.3-1.6-2.4-2c-1.5-0.5-3.2-1.3-3.2-3.1
			c0-1.7,1.4-3,3.7-3c1.3,0,2.5,0.5,3.3,1.2l-0.9,1.1c-0.7-0.5-1.5-0.9-2.4-0.9c-1.3,0-2,0.7-2,1.5c0,1,1.2,1.4,2.4,1.8
			c1.5,0.6,3.3,1.2,3.3,3.2c0,1.7-1.4,3.2-3.9,3.2c-1.5,0-3-0.6-4-1.5L416.5,408.6z"/>
		<path class="st1" d="M432,404.2c0-1.4-0.5-2.7-2.2-2.7c-1.3,0-2.4,0.6-3.2,1.1l-0.7-1.3c1-0.6,2.5-1.4,4.2-1.4
			c2.6,0,3.7,1.7,3.7,4.4v6.6h-1.5l-0.2-1.3h0c-1,0.8-2.2,1.5-3.5,1.5c-1.8,0-3.1-1.1-3.1-3C425.4,405.9,427.5,404.7,432,404.2z
			 M429.1,409.8c1,0,1.9-0.5,2.9-1.4v-3c-3.6,0.4-4.8,1.3-4.8,2.7C427.2,409.3,428,409.8,429.1,409.8z"/>
		<path class="st1" d="M442,396.8c-0.4-0.2-0.8-0.3-1.2-0.3c-1,0-1.5,0.7-1.5,2.1v1.7h2.3v1.5h-2.3v9.2h-1.8v-9.2h-1.5v-1.4l1.5-0.1
			v-1.7c0-2.2,1-3.5,3.1-3.5c0.7,0,1.3,0.2,1.8,0.4L442,396.8z"/>
		<path class="st1" d="M447.4,400c2.7,0,4.3,2,4.3,5c0,0.4,0,0.7-0.1,1h-7.2c0.1,2.3,1.5,3.8,3.6,3.8c1,0,1.9-0.3,2.7-0.8l0.6,1.2
			c-0.9,0.6-2.1,1.1-3.5,1.1c-2.9,0-5.1-2.1-5.1-5.6C442.6,402.2,445,400,447.4,400z M450.1,404.9c0-2.2-1-3.4-2.6-3.4
			c-1.5,0-2.9,1.2-3.1,3.4H450.1z"/>
		<path class="st1" d="M458.7,400c1.4,0,2.4,0.6,3.1,1.3l-0.9,1.2c-0.6-0.5-1.3-0.9-2.2-0.9c-1.9,0-3.3,1.7-3.3,4.1
			c0,2.4,1.3,4.1,3.3,4.1c1,0,1.9-0.5,2.5-1.1l0.8,1.2c-1,0.9-2.2,1.4-3.5,1.4c-2.8,0-5-2-5-5.6C453.6,402.1,456,400,458.7,400z"/>
		<path class="st1" d="M464.7,401.8h-1.6v-1.4l1.7-0.1l0.2-3h1.5v3h2.9v1.5h-2.9v5.9c0,1.3,0.4,2.1,1.7,2.1c0.4,0,0.9-0.2,1.2-0.3
			l0.4,1.4c-0.6,0.2-1.3,0.4-2,0.4c-2.3,0-3.1-1.5-3.1-3.6V401.8z"/>
		<path class="st1" d="M475.6,400c2.7,0,4.3,2,4.3,5c0,0.4,0,0.7-0.1,1h-7.2c0.1,2.3,1.5,3.8,3.6,3.8c1,0,1.9-0.3,2.7-0.8l0.6,1.2
			c-0.9,0.6-2.1,1.1-3.5,1.1c-2.9,0-5.1-2.1-5.1-5.6C470.8,402.2,473.2,400,475.6,400z M478.3,404.9c0-2.2-1-3.4-2.6-3.4
			c-1.5,0-2.9,1.2-3.1,3.4H478.3z M475.6,398.4h-1.4l2-3.1h1.9L475.6,398.4z"/>
		<path class="st1" d="M482.2,408.6c0.9,0.7,1.9,1.3,3.1,1.3c1.4,0,2.1-0.7,2.1-1.7c0-1.1-1.3-1.6-2.4-2c-1.5-0.5-3.2-1.3-3.2-3.1
			c0-1.7,1.4-3,3.7-3c1.3,0,2.5,0.5,3.3,1.2l-0.9,1.1c-0.7-0.5-1.5-0.9-2.4-0.9c-1.3,0-2,0.7-2,1.5c0,1,1.2,1.4,2.4,1.8
			c1.5,0.6,3.3,1.2,3.3,3.2c0,1.7-1.4,3.2-3.9,3.2c-1.5,0-3-0.6-4-1.5L482.2,408.6z"/>
	</g>
</g>
</svg>
